<?xml version="1.0" standalone="no"?>
<!DOCTYPE svg PUBLIC "-//W3C//DTD SVG 20010904//EN"
 "http://www.w3.org/TR/2001/REC-SVG-20010904/DTD/svg10.dtd">
<svg version="1.0" xmlns="http://www.w3.org/2000/svg"
 width="1024.000000pt" height="1024.000000pt" viewBox="0 0 1024.000000 1024.000000"
 preserveAspectRatio="xMidYMid meet">

<g transform="translate(0.000000,1024.000000) scale(0.100000,-0.100000)"
fill="#000000" stroke="none">
<path d="M0 10183 l0 -58 21 35 c12 19 30 45 42 58 l20 22 -41 0 -42 0 0 -57z"/>
<path d="M898 10225 c-9 -9 4 -55 13 -49 11 7 12 54 1 54 -5 0 -11 -2 -14 -5z"/>
<path d="M2212 7368 l3 -2863 -30 -6 -30 -6 35 -5 c19 -3 -3 -6 -50 -7 -103
-2 -190 -21 -250 -55 -147 -83 -208 -210 -212 -440 l-2 -111 -7 80 c-5 67 -6
61 -3 -35 2 -66 8 -116 14 -118 6 -2 9 -50 8 -125 -1 -110 -2 -115 -9 -57 -4
38 -6 -23 -4 -145 2 -137 7 -211 14 -213 12 -4 13 -85 1 -177 -7 -60 -7 -60
-9 29 0 49 -3 87 -5 85 -2 -2 -6 -44 -10 -94 -3 -49 -9 -133 -12 -185 -12
-176 25 -280 139 -394 38 -38 73 -80 78 -93 5 -13 13 -22 18 -19 5 3 12 -1 15
-10 3 -8 19 -20 36 -25 16 -6 30 -17 30 -25 0 -8 8 -14 18 -14 13 0 14 -2 3
-9 -9 -6 -10 -10 -1 -13 7 -2 15 -50 20 -137 5 -73 11 -135 13 -138 3 -2 9 38
13 89 7 76 12 93 27 96 10 2 17 -3 17 -11 0 -8 9 -22 20 -32 12 -11 27 -52 41
-112 16 -71 27 -97 40 -100 11 -3 21 -21 28 -51 16 -68 21 -1042 6 -1157 l-11
-90 -8 77 c-4 43 -11 78 -15 78 -4 0 -11 -66 -15 -147 -4 -98 -12 -162 -22
-191 -21 -54 -44 -56 -45 -2 -1 22 -3 52 -5 68 -11 78 -33 524 -40 789 -4 196
-11 300 -17 296 -6 -4 -8 -170 -4 -478 4 -313 2 -476 -5 -483 -6 -6 -6 -12 1
-16 6 -4 11 -37 11 -77 l0 -69 -40 0 c-33 0 -40 4 -40 19 0 23 -17 31 -53 24
-26 -5 -27 -3 -27 36 l0 41 -40 0 -40 0 0 59 c0 38 4 61 13 64 6 3 2 6 -10 6
-14 1 -23 7 -23 17 0 8 4 13 8 10 4 -2 14 -1 22 5 12 7 10 9 -7 9 -19 0 -23 5
-23 34 0 26 5 35 22 40 19 5 21 8 8 16 -8 5 -28 10 -44 10 -16 0 -26 3 -23 7
11 10 -24 43 -45 43 -13 0 -18 7 -18 25 0 18 -5 25 -20 25 -16 0 -20 7 -20 35
0 33 -2 35 -31 35 -18 0 -37 -7 -44 -17 -11 -15 -13 -15 -20 6 -5 17 -12 21
-28 17 -12 -3 -25 -6 -29 -6 -5 0 -8 -9 -8 -20 0 -17 -6 -20 -47 -17 l-47 2
-10 -42 c-5 -24 -12 -43 -16 -43 -5 0 -6 9 -3 20 3 11 0 20 -6 20 -6 0 -20 -9
-31 -20 -27 -27 -57 -26 -66 2 -3 12 -7 180 -6 372 0 193 -3 392 -7 441 -8 96
-10 21 -16 -531 -1 -121 -5 -226 -9 -232 -4 -7 -3 -12 3 -12 5 0 4 -12 -4 -28
-8 -15 -12 -35 -9 -45 4 -13 0 -20 -15 -24 -12 -3 -21 -11 -21 -17 0 -21 -20
-33 -46 -28 -21 4 -25 9 -19 29 4 18 2 24 -7 21 -7 -3 -15 -18 -19 -34 -3 -16
-13 -42 -21 -59 l-16 -29 -12 54 c-10 45 -9 149 1 205 1 6 -2 38 -5 72 -5 42
-4 63 3 63 6 0 11 19 12 43 1 36 2 38 9 17 7 -23 8 -22 9 10 1 26 4 31 11 20
8 -12 10 -11 10 8 0 15 6 22 20 22 13 0 20 7 20 20 0 13 -7 20 -20 20 -13 0
-20 -7 -20 -20 0 -13 -7 -20 -18 -20 -27 0 -41 78 -40 230 0 69 -1 163 -2 210
l-2 85 -15 -110 c-8 -60 -18 -113 -21 -117 -4 -4 -5 -62 -1 -128 6 -134 -2
-220 -16 -185 -5 11 -12 22 -16 25 -12 8 -17 212 -34 1410 -3 201 -5 1624 -5
3163 0 1557 -4 2796 -9 2793 -5 -3 -9 -38 -9 -78 -2 -482 -18 -5694 -21 -6711
-1 -364 -1 -368 -21 -362 -16 5 -20 2 -20 -15 0 -14 5 -20 17 -18 15 3 18 -5
17 -42 -1 -129 -4 -150 -19 -150 -10 0 -15 -10 -15 -30 0 -28 19 -44 21 -17 0
6 4 0 9 -16 12 -39 5 -103 -13 -121 -22 -22 -47 -20 -47 4 0 11 -7 20 -15 20
-8 0 -15 -7 -15 -15 0 -8 -4 -15 -10 -15 -6 0 -10 32 -10 75 0 68 2 75 20 75
13 0 20 -7 20 -20 0 -11 5 -20 10 -20 6 0 10 13 10 29 0 55 -12 87 -37 101
-21 13 -25 23 -28 75 -1 33 -8 152 -15 264 -10 169 -9 205 2 212 11 7 11 12
-1 31 -14 22 -20 221 -21 711 0 48 -3 87 -7 87 -5 0 -6 -233 -3 -517 7 -807 5
-1054 -11 -1064 -10 -6 -11 -9 -1 -9 17 0 15 -27 -3 -34 -9 -3 -19 3 -25 14
-14 27 -57 26 -65 0 -8 -26 -35 -26 -35 0 0 14 -7 20 -22 20 l-21 0 21 23 c30
32 29 57 -3 57 -25 0 -25 0 -27 103 -3 121 -5 273 -7 867 -1 245 -5 479 -8
520 l-7 75 -7 -53 c-4 -29 -7 -189 -8 -355 0 -166 0 -344 -1 -395 0 -51 -3
-91 -8 -88 -4 2 -8 -14 -9 -37 -4 -105 -16 -187 -28 -187 -7 0 -19 -7 -26 -16
-12 -15 -11 -16 9 -10 13 4 22 3 22 -3 0 -5 -18 -9 -40 -8 -27 1 -35 4 -25 10
8 4 15 13 15 20 0 9 -2 9 -8 0 -5 -7 -13 -9 -21 -3 -10 6 -2 12 30 21 24 6 38
14 32 16 -9 3 -13 26 -13 64 0 44 -4 59 -14 59 -9 0 -17 -15 -21 -40 -4 -25
-12 -40 -21 -40 -8 0 -14 5 -14 10 0 24 -31 7 -37 -20 -4 -23 -11 -30 -29 -30
-21 0 -24 -5 -24 -39 0 -22 -4 -51 -10 -66 -7 -17 -7 -24 0 -20 6 4 10 -10 10
-34 l0 -41 -40 0 -40 0 0 40 c0 33 -3 40 -20 40 -17 0 -20 7 -20 40 0 33 3 40
20 40 13 0 20 7 20 20 0 11 -5 20 -10 20 -6 0 -9 3 -9 8 3 20 -2 32 -16 32 -9
0 -15 9 -15 25 0 14 -4 25 -10 25 -5 0 -10 7 -10 15 0 8 7 15 15 15 8 0 15 9
15 20 0 11 5 20 10 20 6 0 10 9 10 20 0 11 -4 20 -10 20 -5 0 -10 18 -10 40 0
29 -4 40 -15 40 -8 0 -15 9 -15 20 0 15 7 20 25 20 14 0 25 3 26 8 0 4 2 16 4
26 2 11 1 25 -3 30 -12 19 -10 35 4 47 8 6 14 29 14 50 0 32 3 39 20 39 13 0
20 7 20 20 0 11 5 20 10 20 6 0 10 9 10 20 0 16 -7 20 -30 20 -23 0 -30 4 -30
20 0 18 -7 20 -65 20 -60 0 -65 2 -66 23 -1 20 -1 20 -9 -4 -4 -14 -8 -531 -9
-1148 -1 -1224 -5 -1153 55 -1200 28 -22 60 -29 48 -10 -5 8 -1 8 13 0 14 -7
305 -10 916 -10 839 -1 951 3 893 25 -9 3 -16 10 -16 15 0 12 38 11 42 -1 2
-6 22 -11 45 -13 24 -1 43 -3 43 -5 0 -1 -10 -7 -22 -12 -16 -6 22 -8 112 -7
l135 2 3 43 c2 23 7 42 12 42 5 0 7 -6 4 -14 -3 -8 -1 -24 6 -35 8 -16 8 -21
-2 -23 -7 -1 34 -4 92 -8 58 -3 110 -4 115 -3 6 2 9 22 8 46 -2 23 -5 242 -8
487 -6 567 -8 620 -20 620 -9 0 -17 -475 -12 -735 1 -46 0 -97 -3 -142 -1 -10
0 -73 2 -141 l3 -122 -47 0 c-44 0 -48 2 -48 24 0 16 -7 27 -20 31 -22 7 -21
-5 -24 240 -2 88 -4 178 -5 200 l-3 40 -8 -35 c-5 -19 -9 -98 -9 -175 -1 -193
-4 -238 -18 -242 -10 -4 -12 123 -13 569 0 315 -2 686 -4 823 -4 266 3 425 18
370 4 -16 9 -36 12 -42 2 -7 15 -13 28 -13 18 0 24 -4 20 -15 -4 -9 0 -15 10
-15 23 0 20 16 -6 35 -19 13 -20 17 -9 25 10 6 19 3 29 -8 10 -13 15 -14 18
-4 9 20 40 14 52 -11 6 -12 14 -49 17 -81 9 -79 17 -99 26 -66 4 14 7 39 8 57
2 60 18 81 69 85 25 2 50 -1 56 -7 30 -30 64 -45 99 -45 21 0 51 -7 66 -15 16
-8 31 -11 35 -8 3 4 6 0 6 -7 0 -7 3 -11 6 -7 3 3 15 -4 26 -15 16 -16 18 -22
7 -29 -10 -6 -6 -9 13 -9 15 0 30 -5 33 -10 3 -6 26 -10 49 -10 l43 0 7 -232
c4 -128 9 -379 11 -558 6 -432 16 -833 21 -841 2 -4 -4 -10 -13 -12 -10 -3 2
-5 27 -4 l45 2 2 155 c3 370 2 488 -6 517 -5 17 -7 82 -5 144 2 63 7 265 10
449 6 395 8 420 33 413 17 -4 51 -71 51 -101 0 -15 13 -15 28 0 15 15 60 -4
82 -35 17 -24 39 -107 40 -149 0 -16 4 -28 9 -28 11 0 21 25 21 56 0 13 3 24
6 24 17 0 124 -129 124 -149 0 -6 9 -11 20 -11 27 0 25 -18 -2 -22 -22 -4 -22
-5 5 -18 15 -7 27 -19 27 -27 0 -19 18 -16 23 5 4 14 5 13 6 -4 0 -11 5 -24
11 -30 12 -12 32 -713 30 -1077 -1 -113 0 -117 21 -117 21 0 21 2 15 122 -16
286 -25 853 -15 980 3 38 8 48 22 48 9 0 17 -4 17 -10 0 -5 5 -10 11 -10 7 0
17 -8 24 -17 10 -13 32 -17 106 -19 55 -2 95 -7 97 -13 2 -6 9 -11 16 -11 7 0
26 -14 41 -32 17 -19 30 -27 33 -20 6 18 40 14 46 -5 3 -10 6 -45 7 -78 1 -33
5 -69 9 -80 7 -18 25 -588 25 -778 0 -71 2 -77 19 -75 17 3 19 11 17 78 -1 41
-7 96 -11 122 -5 26 -12 211 -16 411 -6 300 -5 365 6 372 9 5 15 4 18 -3 5
-16 39 -15 45 1 2 6 7 9 11 6 19 -18 25 -163 23 -542 -2 -345 -4 -419 -16
-426 -11 -7 -10 -10 5 -13 26 -5 78 3 66 11 -15 9 -31 296 -32 576 -1 297 4
355 31 355 11 0 19 -4 19 -10 0 -5 9 -10 20 -10 11 0 20 -4 20 -9 0 -5 12 -14
28 -19 15 -5 35 -13 45 -17 12 -5 17 -2 17 9 0 9 4 16 9 16 22 0 31 -165 32
-582 l0 -328 28 0 27 0 -3 333 c-1 182 -5 392 -8 465 -5 114 -3 133 10 138 12
5 13 9 4 20 -9 11 -8 18 2 31 26 34 39 45 39 34 0 -6 14 -11 30 -11 22 0 30
-5 30 -17 1 -17 1 -17 14 0 13 17 15 15 21 -22 9 -51 25 -53 26 -3 0 20 4 45
8 56 7 17 8 17 23 2 9 -9 22 -16 28 -16 6 0 13 -13 17 -30 3 -16 9 -30 14 -30
5 0 9 -13 9 -30 0 -53 17 -32 24 30 6 56 9 60 32 60 19 0 28 -7 35 -30 7 -19
18 -30 30 -30 10 0 19 -4 19 -9 0 -10 25 -9 36 2 3 3 13 -1 22 -10 14 -14 14
-17 1 -27 -14 -10 -14 -13 0 -27 30 -30 44 -34 36 -10 -6 19 -2 21 29 21 19 0
41 3 50 6 11 4 16 1 16 -10 0 -9 5 -16 10 -16 6 0 10 5 10 10 0 6 7 10 15 10
9 0 12 -6 9 -15 -4 -8 1 -17 10 -21 9 -3 16 -13 16 -20 0 -8 11 -19 24 -23 32
-13 36 -60 36 -473 l1 -338 26 0 25 0 -5 317 c-6 349 -1 484 17 477 6 -2 34 3
61 10 29 8 40 15 27 15 -20 1 -21 3 -9 15 13 13 58 21 99 17 11 0 21 -15 28
-42 l11 -40 29 30 c15 17 35 31 44 31 9 0 16 5 16 10 0 6 9 10 20 10 11 0 20
-4 20 -10 0 -5 9 -10 20 -10 11 0 20 -4 20 -10 0 -5 9 -10 20 -10 11 0 20 -4
20 -10 0 -13 107 -13 115 0 10 16 23 12 30 -10 7 -22 31 -27 38 -8 16 46 22
-49 24 -375 1 -205 2 -380 2 -389 1 -13 9 -18 34 -18 l32 0 0 529 c0 291 3
532 7 536 4 4 16 0 28 -8 14 -10 35 -13 61 -10 38 6 39 5 39 -26 0 -33 23 -44
34 -15 4 10 15 14 33 12 30 -3 31 -6 33 -160 2 -143 18 -180 21 -48 2 95 4
130 10 183 2 12 11 17 31 17 24 0 28 -4 28 -30 0 -23 4 -30 20 -30 11 0 20 -4
20 -10 0 -5 9 -10 20 -10 13 0 20 7 20 20 0 17 7 20 40 20 35 0 40 -3 46 -27
3 -16 10 -38 15 -51 5 -13 9 -121 9 -240 1 -119 5 -311 11 -426 8 -171 8 -211
-3 -217 -8 -6 -2 -9 19 -9 31 0 32 1 28 38 -10 101 -17 281 -18 507 -2 288 1
345 20 345 7 0 13 5 13 11 0 5 4 8 9 4 5 -3 16 2 24 10 31 30 75 5 62 -35 -6
-18 -4 -20 19 -14 25 6 26 4 26 -35 0 -34 3 -41 20 -41 11 0 20 5 20 10 0 16
27 11 34 -6 3 -9 6 -31 6 -50 0 -31 3 -34 30 -34 23 0 30 4 30 20 0 11 -4 20
-10 20 -5 0 -10 9 -10 20 0 11 5 20 10 20 6 0 10 9 10 20 0 11 5 20 10 20 6 0
8 17 4 43 -4 28 -2 38 4 28 8 -11 10 -11 14 0 13 36 18 -14 20 -214 1 -119 6
-217 10 -217 4 0 8 -10 8 -22 0 -12 2 -19 4 -17 3 2 7 117 11 254 3 138 8 258
11 268 5 15 7 15 20 2 17 -17 64 -20 64 -5 0 6 -4 10 -10 10 -5 0 -10 5 -10
11 0 16 26 39 44 39 9 0 16 5 16 10 0 6 9 10 20 10 13 0 20 -7 20 -20 0 -11 5
-20 10 -20 6 0 10 5 10 10 0 6 7 10 15 10 8 0 15 -4 15 -9 0 -5 14 -14 30 -20
29 -10 30 -12 31 -78 5 -315 10 -586 12 -731 2 -166 3 -173 22 -170 19 3 20 9
17 150 -2 95 1 148 7 153 16 9 13 35 -4 35 -11 0 -15 13 -16 48 -3 101 -4 222
-1 350 l2 132 45 0 c38 0 45 3 45 20 0 18 7 20 60 20 l60 0 0 40 c0 33 3 40
20 40 13 0 20 7 20 20 0 13 7 20 20 20 11 0 20 -4 20 -10 0 -5 8 -10 18 -10
18 0 19 -16 25 -252 4 -139 7 -327 7 -418 0 -91 3 -180 6 -199 5 -23 2 -36 -7
-43 -11 -7 -11 -11 -1 -15 17 -7 15 -60 -2 -70 -8 -4 140 -9 329 -11 225 -2
345 0 349 7 4 6 16 7 29 3 25 -9 69 -8 84 1 6 4 9 34 6 72 -2 41 0 65 7 65 5
0 10 9 10 20 0 11 5 20 10 20 6 0 10 -9 10 -20 0 -13 7 -20 20 -20 21 0 28
-24 10 -35 -12 -8 -8 -77 5 -87 6 -5 4 -8 -5 -8 -13 0 -13 -2 -1 -9 9 -6 383
-10 893 -10 l878 -1 0 1035 0 1035 -39 0 c-22 0 -41 -5 -44 -12 -10 -29 -16 3
-18 85 -1 75 -4 87 -20 92 -22 7 -26 25 -5 25 8 0 16 -7 20 -15 3 -9 18 -15
36 -15 23 0 30 4 30 20 0 13 7 20 20 20 11 0 20 7 20 15 0 8 -9 15 -20 15 -11
0 -20 -6 -20 -14 0 -15 -45 -27 -67 -19 -7 3 -13 14 -13 24 0 10 -4 19 -10 19
-5 0 -10 9 -10 20 0 11 5 20 10 20 6 0 10 -6 10 -12 0 -23 20 15 20 38 0 24
-22 38 -37 23 -12 -12 -63 -1 -63 13 0 6 9 8 20 5 22 -6 26 3 8 21 -9 9 -9 18
0 37 16 34 15 35 -7 35 -15 0 -21 -10 -26 -40 -7 -42 -35 -57 -35 -19 0 15 -6
20 -22 19 -38 -3 -50 -1 -43 10 3 6 15 10 26 10 10 0 19 5 19 10 0 6 -4 10
-10 10 -5 0 -10 12 -10 26 0 25 -2 25 -42 19 -24 -4 -44 -8 -46 -10 -1 -1 -4
-46 -5 -98 -2 -53 -6 -100 -10 -103 -4 -4 -7 298 -8 672 0 373 -2 1202 -4
1842 -3 1283 -9 1184 59 1143 33 -20 309 -131 326 -131 6 0 10 69 10 185 l0
185 -29 0 c-17 0 -33 -5 -36 -10 -4 -7 3 -9 22 -5 25 5 26 4 5 -4 -14 -7 -31
-7 -48 -1 -33 13 -34 13 -27 -7 5 -14 1 -15 -28 -9 -19 3 -38 12 -44 20 -17
22 -79 50 -83 37 -7 -22 -24 -11 -18 13 6 24 -7 36 -41 36 -11 0 -14 -7 -11
-23 4 -20 1 -23 -24 -19 -15 2 -28 7 -29 11 -7 53 -8 88 -9 214 0 82 2 153 6
158 3 6 23 0 48 -15 24 -14 83 -43 132 -64 49 -22 113 -54 142 -71 29 -17 57
-31 63 -31 6 0 8 55 7 146 l-3 146 -40 15 c-89 34 -194 77 -262 110 -64 30
-74 38 -83 71 -7 25 -11 539 -13 1647 l-2 1610 -24 0 -25 0 1 -570 c2 -845 12
-2252 19 -2477 4 -122 3 -198 -3 -198 -8 0 -93 32 -158 59 -29 13 -266 103
-450 172 -88 33 -171 66 -184 72 l-23 12 1 1260 c1 693 2 1352 3 1465 2 197 1
205 -17 205 -20 0 -20 -12 -22 -665 -1 -366 -5 -690 -9 -720 l-6 -55 -14 52
c-19 72 -58 147 -103 196 -21 23 -42 53 -46 66 -5 16 -10 20 -15 11 -6 -9 -29
-2 -91 28 -46 23 -97 44 -114 48 -16 4 -77 26 -135 49 -58 23 -116 45 -130 48
-43 12 -54 24 -61 74 l-6 48 -2 -42 c-1 -50 -9 -52 -69 -23 -71 35 -201 80
-342 120 -74 21 -198 66 -274 100 -172 76 -259 96 -358 82 -122 -18 -241 -96
-288 -188 -22 -44 -25 -61 -24 -159 0 -88 5 -119 21 -156 26 -59 73 -111 129
-144 37 -22 44 -30 38 -48 -10 -33 -48 -100 -56 -99 -19 3 -115 -32 -150 -54
-51 -33 -80 -102 -90 -221 -1 -10 -5 -10 -16 -1 -8 7 -24 14 -35 15 -12 2 -49
21 -82 43 -83 54 -334 172 -491 231 -72 27 -135 49 -140 49 -23 0 -29 55 -28
225 0 99 3 385 5 635 4 453 4 455 -17 458 -20 3 -20 3 -18 -595 0 -329 4 -614
8 -634 5 -24 4 -39 -3 -44 -6 -3 -9 -11 -6 -16 9 -14 -5 -11 -86 16 -167 58
-528 102 -744 92 -221 -11 -406 -52 -705 -159 -208 -75 -563 -261 -730 -383
-152 -112 -378 -360 -493 -543 -95 -150 -204 -455 -252 -702 -24 -123 -34
-629 -34 -1804 l-1 -989 -142 6 c-79 4 -220 7 -315 7 l-172 0 -1 498 c0 273
-2 585 -5 692 -11 453 -24 4037 -15 4405 3 134 1 150 -14 153 -15 3 -16 -183
-14 -2860z m5193 1998 c50 -18 135 -52 190 -73 55 -22 152 -57 215 -78 63 -20
144 -51 180 -67 36 -17 99 -43 140 -58 41 -15 111 -42 155 -58 44 -17 123 -47
175 -67 148 -55 196 -82 214 -120 48 -100 -14 -218 -113 -217 -45 1 -54 4
-271 110 -91 44 -183 85 -205 92 -22 7 -112 41 -200 75 -88 34 -194 72 -235
85 -41 12 -106 33 -145 45 -38 13 -117 37 -175 55 -188 58 -191 60 -221 125
-36 78 -17 134 59 175 50 27 121 20 237 -24z m-12 -480 c42 -19 139 -57 215
-82 75 -26 175 -64 222 -84 47 -21 130 -54 185 -75 80 -29 300 -128 313 -140
6 -5 -26 -127 -35 -136 -7 -7 -22 -3 -44 9 -19 11 -51 23 -73 27 -21 3 -63 17
-93 30 -30 14 -107 43 -171 66 -64 22 -126 45 -137 49 -49 22 -228 90 -236 90
-5 0 -37 13 -71 28 -35 16 -97 41 -138 57 -118 43 -130 49 -130 65 0 16 21 86
39 133 12 31 1 34 154 -37z m-1838 -39 c206 -39 400 -102 600 -192 351 -158
608 -354 805 -616 198 -263 310 -549 330 -840 14 -220 3 -306 -35 -268 -15 15
-18 33 -30 184 -10 121 -55 335 -75 360 -4 6 -10 19 -13 30 -3 14 -5 11 -5
-10 -1 -16 5 -48 13 -70 8 -22 15 -41 15 -42 0 -2 -9 -3 -19 -3 -11 0 -22 -6
-24 -12 -3 -7 -6 -3 -6 10 -1 28 -31 30 -31 2 0 -13 -7 -20 -20 -20 -18 0 -20
7 -20 80 0 73 -2 80 -20 80 -17 0 -20 -7 -20 -40 l0 -40 -40 0 -40 0 0 40 c0
22 5 40 10 40 6 0 10 18 10 40 0 22 5 40 10 40 6 0 10 27 10 60 0 33 -4 60
-10 60 -5 0 -10 7 -10 15 0 8 -4 15 -10 15 -5 0 -10 -16 -10 -35 0 -33 -10
-41 -42 -36 -5 0 -8 -8 -8 -20 0 -11 4 -18 9 -15 5 3 11 -11 15 -32 9 -55 7
-92 -4 -92 -6 0 -10 -28 -11 -62 0 -43 -3 -57 -9 -43 -6 15 -9 8 -12 -30 -3
-27 -5 45 -5 160 -1 116 -4 218 -8 227 -9 21 -39 32 -70 24 -40 -10 -45 -50
-45 -345 -1 -220 -4 -281 -15 -301 -8 -14 -14 -19 -15 -12 0 6 -5 12 -11 12
-5 0 -7 -4 -4 -10 3 -5 2 -10 -4 -10 -7 0 -7 -8 -1 -26 9 -23 8 -25 -7 -19
-10 4 -44 15 -76 24 l-58 17 1 377 c1 366 0 377 -20 397 -11 11 -26 20 -33 20
-10 0 -47 -27 -59 -43 0 -1 -4 -156 -7 -344 -3 -188 -8 -344 -11 -346 -3 -3
-41 7 -86 22 l-81 26 -6 340 c-6 364 -10 392 -62 481 -32 54 -98 112 -172 151
-32 17 -177 70 -323 118 -300 98 -364 120 -540 182 -194 68 -314 96 -378 90
-112 -12 -225 -98 -278 -212 -35 -73 -34 -182 2 -253 14 -29 37 -60 51 -70 63
-44 76 -58 69 -78 -3 -12 -25 -29 -48 -40 -54 -24 -76 -64 -112 -197 -15 -56
-32 -113 -37 -126 -6 -13 -30 -92 -54 -176 -36 -129 -68 -215 -78 -215 -1 0
-3 154 -4 342 -2 367 -1 358 -55 358 -48 0 -51 -19 -56 -355 -6 -423 14 -661
59 -693 10 -7 17 -18 14 -23 -4 -5 2 -17 11 -27 17 -16 14 -17 -52 -23 -108
-9 -146 -32 -226 -141 l-18 -23 11 30 c15 39 12 1200 -2 1228 -14 25 -48 18
-73 -16 -21 -28 -21 -33 -22 -750 0 -664 -3 -850 -20 -1179 l-6 -118 -59 0
c-46 0 -59 3 -59 15 0 8 -4 15 -9 15 -9 0 -13 -13 -28 -105 -4 -28 -10 395
-13 977 -5 941 -6 1029 -22 1044 -21 21 -63 12 -80 -19 -10 -17 -14 -230 -18
-949 -3 -509 -8 -930 -12 -934 -5 -4 -8 11 -8 34 0 23 -3 42 -8 42 -4 0 -7
-19 -5 -42 1 -24 -1 -33 -3 -20 -7 27 -34 29 -34 2 0 -18 -7 -20 -59 -20 -50
0 -59 -3 -64 -20 -4 -17 -14 -20 -72 -20 -63 0 -67 -1 -62 -21 3 -13 1 -19 -6
-16 -7 2 -15 21 -18 43 -6 41 -13 -326 -15 -861 -1 -170 -2 -354 -3 -408 l-1
-98 -37 3 -38 3 0 1265 c0 1404 -1 1385 65 1658 58 237 114 369 234 550 236
355 533 572 1071 785 273 108 386 127 735 123 186 -2 289 -8 345 -19z m3408
-869 c4 -418 2 -670 -4 -674 -14 -8 -163 81 -238 143 -72 58 -123 80 -218 89
-63 7 -64 7 -58 33 3 14 33 61 66 104 101 130 129 221 110 358 -11 83 -56 197
-93 236 -19 20 -20 28 -12 70 l9 48 80 6 c112 8 169 40 241 134 42 54 61 92
74 151 7 27 14 56 17 64 15 39 22 -147 26 -762z m-1845 625 c37 -10 70 -21 73
-25 6 -9 112 -48 128 -48 6 0 43 -15 83 -34 175 -81 300 -132 528 -217 63 -23
137 -50 163 -60 26 -10 67 -28 90 -42 23 -13 68 -34 101 -47 48 -19 61 -29 73
-59 18 -42 12 -156 -11 -218 -31 -83 -133 -322 -141 -331 -5 -5 -85 30 -85 37
0 4 -10 7 -22 6 -36 -3 -382 120 -466 166 -42 23 -113 61 -157 85 -44 23 -93
55 -110 71 -29 27 -75 87 -75 97 0 9 -92 140 -133 191 -23 28 -78 91 -123 140
-44 50 -86 100 -93 112 -13 26 -14 46 -1 38 5 -3 14 12 20 34 6 22 14 43 19
46 5 3 7 14 4 25 -6 23 20 49 50 50 10 0 49 -8 85 -17z m-2231 -212 c32 -10
177 -60 323 -111 146 -50 292 -100 325 -110 88 -26 383 -138 406 -154 47 -32
69 -77 69 -138 0 -50 -4 -63 -26 -84 -34 -35 -73 -30 -254 36 -214 78 -630
217 -750 250 -304 84 -345 107 -345 195 0 51 28 87 90 116 51 24 89 24 162 0z
m360 -551 c404 -136 493 -169 493 -186 0 -12 -33 -104 -37 -104 -3 0 -93 29
-201 64 -109 35 -219 70 -247 77 -27 7 -76 23 -108 36 -32 13 -131 46 -220 73
l-162 49 2 44 c3 44 18 97 28 97 2 0 206 -67 452 -150z m-444 -159 c89 -33
293 -103 452 -157 274 -91 450 -156 468 -173 4 -4 -6 -48 -22 -99 -17 -50 -46
-147 -66 -217 -20 -70 -45 -145 -54 -168 l-18 -42 1 40 c0 22 5 46 9 52 5 7 8
66 9 130 0 67 4 123 10 131 6 7 8 15 5 18 -3 3 -1 18 4 33 6 14 12 44 14 66 2
22 -31 -62 -74 -190 -43 -126 -88 -252 -100 -279 -20 -46 -23 -48 -54 -43 -17
3 -79 21 -136 41 -120 42 -127 43 -104 16 10 -11 30 -20 45 -20 15 0 29 -4 32
-9 3 -4 18 -7 33 -5 17 2 20 1 8 -3 -11 -3 -23 -9 -26 -14 -3 -6 -13 -7 -22
-3 -9 3 -14 10 -11 15 3 5 -1 6 -9 3 -7 -2 -63 11 -123 31 -60 19 -161 50
-224 69 -195 57 -382 117 -402 129 -25 16 -23 38 13 153 16 54 56 189 89 299
53 184 78 255 87 255 2 0 76 -27 166 -59z m1319 -190 l-3 -129 -52 1 c-29 1
-70 -2 -92 -7 l-40 -8 0 60 c-1 44 -6 66 -19 80 -10 12 -16 32 -14 49 3 27 5
28 65 29 48 2 73 8 105 28 24 14 45 25 48 26 3 0 4 -58 2 -129z m1788 -95 c52
-18 126 -45 163 -60 37 -14 77 -26 87 -26 11 0 20 -6 20 -14 0 -23 -87 -266
-100 -280 -8 -8 -22 33 -35 106 -4 20 -13 39 -20 42 -10 3 -11 16 -4 52 5 26
7 49 5 51 -5 6 -36 -63 -36 -82 0 -24 -24 -13 -28 13 -2 12 -8 20 -13 17 -5
-4 -9 3 -9 13 0 11 -7 25 -15 32 -8 7 -15 23 -15 36 0 16 -10 28 -32 40 -35
17 -98 73 -98 86 0 14 33 8 130 -26z m-1053 -233 c-2 -32 -3 -8 -3 52 0 61 1
87 3 58 2 -29 2 -78 0 -110z m1660 63 c-3 -34 -14 -81 -25 -106 -11 -25 -33
-90 -48 -145 -15 -55 -33 -107 -41 -116 -7 -8 -13 -19 -13 -23 0 -7 -2 -9 -44
-61 l-25 -30 -23 23 c-20 20 -23 32 -22 105 1 87 19 170 61 279 29 76 56 106
116 129 62 24 70 17 64 -55z m-2521 -61 c19 -29 20 -26 -51 -236 -49 -147 -70
-179 -115 -179 -62 0 -93 72 -67 151 8 24 22 77 32 117 20 85 41 114 103 147
60 31 78 31 98 0z m2809 -30 c28 -17 74 -41 103 -55 28 -13 52 -27 52 -32 0
-4 7 -8 15 -8 8 0 38 -11 67 -24 110 -51 295 -130 358 -151 103 -36 392 -164
413 -183 17 -15 19 -27 14 -102 -8 -111 -17 -173 -28 -184 -9 -10 -96 15 -136
40 -12 7 -40 16 -62 20 -23 4 -41 11 -41 16 0 5 -8 8 -17 7 -20 -3 -103 19
-118 31 -9 6 -95 30 -110 30 -4 0 -5 -7 -1 -15 3 -8 1 -15 -4 -15 -6 0 -10 7
-10 15 0 8 -12 17 -27 20 -16 4 -38 8 -50 11 -13 2 -23 9 -23 15 0 8 5 8 15
-1 8 -6 20 -10 27 -8 13 5 -92 48 -116 48 -8 0 -19 7 -26 15 -14 17 -80 21
-80 5 0 -6 12 -8 28 -5 23 5 24 5 9 -5 -18 -11 -18 -12 0 -26 10 -7 13 -14 6
-14 -6 0 -15 5 -18 10 -4 6 -16 10 -28 8 -25 -4 -37 30 -15 43 11 7 10 11 -2
19 -10 6 -16 36 -21 102 -5 85 -6 87 -7 27 -1 -36 -5 -94 -8 -127 -6 -55 -9
-60 -25 -52 -10 6 -25 10 -35 10 -29 0 -248 92 -270 113 -21 20 -22 29 -4 72
5 11 17 56 28 100 44 178 75 274 86 268 6 -4 34 -21 61 -38z m-2389 -170 c112
-46 399 -148 633 -226 40 -13 76 -30 79 -37 2 -7 -5 -26 -17 -42 -11 -16 -21
-39 -21 -51 0 -48 -76 -149 -112 -149 -22 0 -178 53 -178 61 0 3 15 10 33 13
31 7 31 7 12 22 -11 8 -29 13 -39 10 -11 -3 -24 1 -30 8 -14 18 -104 48 -252
85 -146 36 -259 69 -299 85 -17 7 -39 10 -50 6 -11 -4 -28 -3 -38 2 -10 5 -28
8 -40 6 -16 -2 -23 3 -25 19 -4 28 42 158 68 190 11 14 22 41 26 62 13 74 19
76 73 31 32 -27 93 -60 177 -95z m1101 -2 c-2 -27 -3 -5 -3 47 0 52 1 74 3 48
2 -27 2 -69 0 -95z m-660 85 c-3 -7 -5 -2 -5 12 0 14 2 19 5 13 2 -7 2 -19 0
-25z m-1290 -120 c-3 -7 -5 -2 -5 12 0 14 2 19 5 13 2 -7 2 -19 0 -25z m-947
-127 c420 -136 614 -202 684 -231 l78 -33 -6 -44 c-8 -62 -24 -88 -22 -37 l1
39 -60 7 c-33 4 -71 8 -85 10 -20 2 -24 -1 -22 -15 3 -16 -1 -18 -30 -12 -49
11 -198 69 -198 78 0 4 7 7 15 7 8 0 15 -5 15 -10 0 -6 8 -5 20 2 19 12 19 13
-12 25 -48 17 -58 15 -58 -7 0 -17 -5 -19 -27 -14 -49 11 -97 26 -156 50 -31
14 -103 35 -159 49 -167 40 -168 41 -162 78 13 72 26 108 37 105 7 -2 73 -23
147 -47z m3143 -50 c65 -80 87 -137 96 -247 4 -55 13 -110 20 -124 13 -24 12
-24 -4 -8 -13 12 -22 47 -31 123 -14 118 -41 189 -96 251 -18 22 -40 48 -48
58 -33 42 25 -6 63 -53z m-2210 34 c-3 -9 -8 -14 -10 -11 -3 3 -2 9 2 15 9 16
15 13 8 -4z m-273 1 c0 -11 -19 -15 -25 -6 -3 5 1 10 9 10 9 0 16 -2 16 -4z
m84 -34 c2 -4 -4 -9 -15 -9 -10 -1 -19 2 -19 8 0 11 27 12 34 1z m946 -83 c0
-11 -27 -12 -34 -1 -2 4 4 9 15 9 10 1 19 -2 19 -8z m88 -24 c12 -11 -5 -11
-43 2 l-40 13 39 -4 c21 -3 41 -8 44 -11z m1059 -27 c102 -33 136 -56 62 -43
-24 4 -105 11 -179 14 l-135 6 33 34 c31 31 35 33 80 26 26 -3 89 -20 139 -37z
m-3007 -63 c240 -82 429 -144 650 -214 334 -106 353 -113 376 -136 65 -65 28
-174 -68 -204 -32 -11 -46 -9 -110 14 -68 23 -146 48 -533 170 -82 26 -195 63
-250 82 -55 19 -151 50 -213 69 -133 41 -145 47 -165 90 -39 80 -30 140 25
175 46 28 91 21 288 -46z m1253 18 c-3 -7 -9 -11 -13 -10 -5 1 -16 -7 -24 -18
-14 -18 -14 -15 0 28 14 43 18 46 29 30 7 -9 11 -23 8 -30z m922 6 l20 -8 -20
0 c-11 0 -40 6 -65 14 l-45 15 45 -6 c25 -4 54 -10 65 -15z m-823 -33 l37 -7
-1 -159 c0 -150 -1 -160 -19 -160 -10 0 -19 5 -19 10 0 6 -9 10 -20 10 -13 0
-18 -5 -14 -15 4 -8 -1 -17 -10 -21 -9 -3 -16 -12 -16 -20 0 -8 -4 -14 -10
-14 -5 0 -10 7 -10 16 0 9 -13 40 -30 70 -27 49 -28 55 -12 61 9 4 21 11 25
17 6 8 10 7 14 -1 2 -7 15 -13 28 -13 20 0 25 7 31 38 4 20 10 39 15 42 4 3
11 28 17 57 10 56 3 73 -30 73 -10 0 -18 5 -18 10 0 6 -9 10 -21 10 -11 0 -17
5 -14 10 4 6 13 7 23 1 9 -4 34 -11 54 -15z m2763 -67 c110 -38 243 -84 295
-101 52 -16 101 -35 109 -41 11 -10 13 -149 8 -862 -3 -467 -9 -860 -12 -872
-7 -22 -8 -22 -41 14 -19 20 -37 52 -40 71 -6 31 -9 33 -35 30 -29 -5 -39 6
-16 16 10 5 10 7 0 12 -15 7 -17 44 -3 44 6 0 10 5 10 11 0 5 -4 8 -9 5 -5 -3
-8 45 -8 112 2 164 -4 529 -11 642 -9 154 -20 69 -22 -175 -1 -121 -6 -231
-10 -245 -8 -24 -8 -23 -9 8 -1 17 -5 32 -11 32 -5 0 -10 7 -10 15 0 8 6 15
13 15 8 0 7 4 -3 10 -10 6 -11 10 -2 10 6 0 12 5 12 11 0 5 -4 8 -9 5 -10 -6
-20 101 -23 224 -1 41 -8 95 -16 120 -8 25 -16 88 -19 140 -4 96 -13 137 -13
62 0 -50 -18 -55 -57 -16 -21 21 -23 28 -12 35 12 7 11 10 -3 21 -9 7 -20 24
-22 38 -3 14 -10 43 -14 66 -10 49 -20 66 -33 59 -8 -6 -13 8 -10 28 1 4 -12
19 -29 33 -18 16 -30 35 -30 50 0 19 -5 24 -25 24 -18 0 -25 5 -25 18 0 10
-11 28 -25 40 -14 12 -25 30 -25 40 0 10 -18 34 -40 55 -22 20 -40 43 -40 52
0 8 -5 15 -12 15 -6 0 -9 3 -5 6 3 4 -1 25 -10 47 -12 30 -14 42 -5 45 7 2 12
8 12 13 0 20 54 89 69 89 9 0 107 -32 216 -71z m-2935 11 c0 -5 -5 -10 -11
-10 -5 0 -7 5 -4 10 3 6 8 10 11 10 2 0 4 -4 4 -10z m-39 -30 c-18 -11 -21
-69 -3 -63 7 3 12 -3 12 -16 0 -12 5 -21 12 -21 6 0 9 -3 5 -6 -3 -3 -20 4
-36 16 -38 27 -42 71 -9 94 12 9 24 13 27 10 3 -3 -1 -9 -8 -14z m676 -42 c-3
-7 -5 -2 -5 12 0 14 2 19 5 13 2 -7 2 -19 0 -25z m-284 -74 c4 -4 7 -3 7 2 0
6 19 11 42 13 23 1 46 7 50 14 6 9 8 9 8 0 0 -7 8 -13 19 -13 17 0 19 -9 18
-102 0 -57 -2 -88 -4 -70 -3 23 -9 32 -24 32 -10 0 -19 -4 -19 -10 0 -5 -9
-10 -20 -10 -13 0 -20 -7 -20 -20 0 -13 -7 -20 -19 -20 -13 0 -21 -11 -28 -42
-6 -25 -11 -34 -12 -20 0 12 -5 22 -11 22 -6 0 -10 60 -9 163 1 98 4 143 8
115 4 -26 10 -50 14 -54z m274 -66 c-2 -24 -4 -5 -4 42 0 47 2 66 4 43 2 -24
2 -62 0 -85z m1305 111 c13 -5 35 -27 49 -47 15 -20 58 -71 96 -112 37 -41 95
-109 127 -150 33 -41 77 -93 97 -115 l37 -40 2 -715 c1 -393 2 -721 1 -728 -1
-10 -119 -12 -573 -10 l-573 3 -3 733 -2 733 107 137 c112 145 223 275 257
304 18 15 45 18 188 18 97 0 177 -4 190 -11z m-861 -67 c-6 -2 -36 4 -67 13
-31 9 -62 14 -69 12 -6 -3 -12 1 -12 8 0 9 20 7 79 -9 44 -11 75 -22 69 -24z
m2482 -53 c94 -33 219 -78 277 -99 58 -21 117 -42 133 -45 18 -5 29 -16 34
-33 5 -22 7 -23 18 -9 16 22 17 22 100 -8 l70 -26 -2 -462 c-8 -1830 -12
-2130 -23 -2137 -8 -5 -9 -22 -5 -52 14 -91 12 -111 -7 -116 -10 -2 -18 -11
-18 -18 0 -8 -9 -14 -20 -14 -22 0 -28 25 -7 33 9 4 8 8 -3 16 -10 7 -17 7
-21 -1 -4 -6 -9 23 -11 66 -1 42 1 81 6 86 6 6 5 15 -2 23 -10 11 -14 78 -13
174 1 12 -4 25 -9 28 -6 3 -10 -4 -10 -17 0 -13 -5 -40 -11 -61 -8 -29 -14
-37 -27 -33 -12 4 -21 -2 -27 -17 -6 -12 -17 -23 -25 -25 -12 -2 -15 6 -12 38
3 30 0 41 -12 46 -9 3 -16 15 -16 25 0 12 -7 19 -20 19 -13 0 -20 7 -20 20 0
11 -6 20 -14 20 -15 0 -26 21 -26 50 0 28 -39 107 -56 114 -10 4 -13 13 -9 25
7 23 -30 71 -55 71 -9 0 -22 11 -28 25 -6 14 -18 25 -26 25 -7 0 -19 13 -26
30 -11 28 -43 47 -65 41 -5 -1 -7 0 -3 4 4 4 1 14 -7 21 -8 8 -12 21 -9 28 3
8 -3 17 -14 20 -26 9 -77 53 -78 69 -1 6 -2 16 -3 21 0 5 -10 1 -21 -9 -11
-10 -23 -15 -27 -11 -13 13 -21 386 -22 971 -1 314 -4 699 -7 858 -4 158 -4
287 0 287 3 0 84 -27 179 -61z m-2626 -71 c-2 -18 -4 -6 -4 27 0 33 2 48 4 33
2 -15 2 -42 0 -60z m-2551 41 c2 -35 5 -39 24 -39 14 0 18 4 13 18 -5 12 2 9
26 -11 18 -15 43 -30 55 -33 23 -5 23 -10 30 -162 7 -152 7 -157 -13 -171 -12
-7 -21 -20 -21 -27 0 -8 -9 -14 -19 -14 -11 0 -23 -4 -26 -10 -3 -5 -22 -10
-41 -10 -27 0 -34 -4 -34 -20 0 -11 -7 -20 -15 -20 -13 0 -15 33 -15 243 1
219 2 240 16 217 l14 -25 -2 35 c-2 19 -7 39 -13 43 -6 5 -4 7 5 4 8 -2 15
-10 16 -18z m2251 -126 c-3 -10 -5 -2 -5 17 0 19 2 27 5 18 2 -10 2 -26 0 -35z
m-1883 -20 c68 -22 76 -31 60 -62 -7 -13 -11 -28 -8 -33 3 -4 0 -8 -6 -8 -8 0
-10 9 -6 25 4 14 3 25 -2 25 -4 0 -9 -19 -10 -42 -2 -32 0 -39 8 -28 7 11 10
7 10 -20 0 -19 -3 -51 -6 -71 -5 -31 -11 -38 -35 -43 -18 -3 -29 -12 -30 -23
-1 -17 -2 -17 -6 0 -5 17 -23 24 -23 8 0 -5 -7 -11 -15 -15 -13 -5 -15 17 -15
155 0 147 1 161 17 155 9 -4 40 -14 67 -23z m2183 -40 c-3 -10 -5 -2 -5 17 0
19 2 27 5 18 2 -10 2 -26 0 -35z m-1903 -58 c39 -16 47 -25 19 -20 -10 2 -18
4 -18 5 0 1 -8 3 -17 5 -15 3 -18 -5 -19 -43 -1 -26 -4 -60 -8 -77 -6 -24 -9
-14 -15 47 -10 103 -6 110 58 83z m-1107 -187 c-3 -7 -5 -2 -5 12 0 14 2 19 5
13 2 -7 2 -19 0 -25z m2402 -538 c106 -26 165 -94 185 -215 l7 -40 -21 33
c-11 18 -20 43 -20 57 0 13 -4 26 -9 30 -6 3 -8 -10 -5 -30 2 -19 3 -35 2 -35
-2 -1 -466 -3 -1033 -6 -566 -3 -1032 -8 -1034 -10 -2 -2 234 -4 525 -4 508 0
700 -6 644 -20 -14 -3 -45 -2 -70 2 -29 5 -46 5 -48 -2 -4 -12 -934 -13 -1077
-1 -49 4 -97 4 -105 1 -8 -4 -50 -11 -92 -15 l-78 -7 0 61 c0 75 17 118 61
155 38 32 67 46 124 57 59 12 1990 1 2044 -11z m-454 -228 l100 -7 -135 -6
c-147 -7 -230 -2 -208 13 15 10 99 10 243 0z m893 -217 c46 -21 56 -31 77 -77
13 -29 26 -75 29 -103 5 -47 5 -46 -9 14 -17 74 -27 89 -74 108 -28 12 -35 12
-42 1 -7 -11 -9 -11 -9 0 0 10 -4 9 -17 -3 -14 -14 -14 -23 -5 -67 18 -75 16
-96 -10 -101 -19 -4 -18 -5 7 -7 24 -2 20 -4 -20 -11 -27 -5 -633 -11 -1345
-14 -712 -3 -1353 -6 -1425 -8 l-130 -2 -5 -35 c-4 -26 -10 -36 -27 -38 -19
-3 -22 3 -28 63 -9 79 -2 131 27 197 22 53 54 81 108 96 23 7 542 10 1440 11
l1405 1 53 -25z m2542 -255 c0 -5 -5 -10 -11 -10 -5 0 -7 5 -4 10 3 6 8 10 11
10 2 0 4 -4 4 -10z m-2651 -323 c79 5 93 4 86 -8 -5 -8 -63 -84 -129 -169 -67
-85 -153 -198 -191 -250 -91 -125 -192 -247 -218 -265 -20 -14 -19 -16 38
-102 32 -48 106 -153 165 -233 58 -80 126 -174 151 -209 24 -36 49 -66 56 -68
17 -6 36 36 92 203 71 216 164 480 217 624 25 69 61 166 79 215 18 50 47 129
65 178 l33 87 155 -2 154 -3 58 -165 c31 -91 87 -246 125 -345 161 -430 355
-984 355 -1012 0 -10 -39 -13 -174 -13 l-173 0 -47 125 c-25 68 -46 129 -46
135 0 12 -30 14 -288 14 l-202 1 -10 -40 c-6 -22 -24 -84 -41 -138 l-31 -97
-301 2 -302 3 -67 90 c-119 158 -304 438 -328 498 -45 108 -50 76 -43 -258 3
-144 3 -278 -1 -298 l-7 -37 -169 0 c-93 0 -171 3 -173 8 -3 4 -6 123 -8 265
l-4 257 30 16 c79 41 124 115 125 205 0 69 -37 132 -106 179 l-47 33 6 171 c4
94 7 224 7 289 l0 117 171 0 170 0 -3 -305 c-3 -342 -10 -321 64 -215 76 109
315 430 354 475 l42 50 109 -7 c59 -4 150 -4 202 -1z m-2834 -8 c35 -9 46 -17
54 -42 7 -20 11 -270 11 -758 l0 -729 -170 0 -171 0 2 753 c1 413 4 760 6 770
4 15 18 17 114 17 61 0 130 -5 154 -11z m857 -9 c274 -38 481 -197 583 -448
31 -77 31 -88 0 -96 -40 -10 -101 -72 -125 -127 -26 -61 -28 -140 -5 -195 19
-47 77 -108 116 -125 40 -16 37 -40 -12 -140 -30 -59 -62 -102 -113 -154 -85
-86 -136 -121 -236 -165 -141 -62 -147 -63 -507 -67 l-333 -5 0 224 c0 123 3
468 7 768 l6 545 271 -2 c149 -2 306 -7 348 -13z m-1641 -4 c182 -39 303 -163
330 -340 12 -78 0 -176 -31 -236 -24 -46 -115 -130 -144 -131 -14 -1 -10 -4
14 -12 58 -18 137 -76 170 -125 43 -66 55 -113 55 -227 0 -94 -2 -105 -34
-170 -42 -85 -133 -179 -211 -218 -99 -49 -177 -57 -545 -57 -309 0 -333 1
-337 18 -2 9 -2 353 0 765 l4 747 331 0 c247 0 349 -4 398 -14z m5630 4 c85
-16 198 -74 249 -129 137 -146 179 -392 99 -579 -26 -59 -114 -150 -173 -178
-27 -13 -53 -21 -58 -18 -30 18 4 -51 146 -301 38 -66 91 -160 118 -208 28
-49 47 -91 43 -95 -4 -4 -91 -8 -193 -10 l-187 -3 -116 198 c-65 109 -131 226
-148 261 l-31 62 -57 0 -56 0 5 -260 6 -260 -164 0 c-147 0 -165 2 -172 18 -6
15 -7 381 -3 1225 l1 287 319 0 c175 0 343 -5 372 -10z m-3237 -675 c59 -28
81 -96 51 -155 -36 -69 -106 -81 -161 -26 -38 38 -44 77 -19 127 15 27 68 69
88 69 5 0 23 -7 41 -15z m4596 -43 c0 -15 -2 -15 -10 -2 -13 20 -13 33 0 25 6
-3 10 -14 10 -23z m-13 -54 c-3 -8 -6 -5 -6 6 -1 11 2 17 5 13 3 -3 4 -12 1
-19z m150 -224 c-3 -3 -12 -4 -19 -1 -8 3 -5 6 6 6 11 1 17 -2 13 -5z m-8110
-296 c-2 -18 -4 -6 -4 27 0 33 2 48 4 33 2 -15 2 -42 0 -60z m7270 -230 c-3
-7 -5 -2 -5 12 0 14 2 19 5 13 2 -7 2 -19 0 -25z m-5349 -256 c23 -57 45 -117
49 -133 5 -28 4 -30 -18 -27 -14 2 -29 14 -37 31 -13 26 -17 28 -65 25 -48 -3
-52 -5 -55 -30 -3 -24 -8 -28 -34 -28 -28 0 -30 2 -23 28 3 15 24 65 45 112
21 47 41 95 45 108 5 16 13 22 28 20 17 -2 31 -25 65 -106z m166 66 c3 -17 6
-52 6 -79 0 -68 38 -106 80 -79 11 7 16 33 19 100 2 70 7 93 18 97 24 9 33
-17 33 -104 0 -93 -12 -128 -51 -149 -43 -22 -66 -17 -107 20 -36 34 -37 36
-41 120 -1 48 -1 93 3 101 9 23 33 7 40 -27z m420 21 c44 -34 29 -86 -16 -55
-31 22 -64 20 -88 -6 -25 -27 -26 -79 -2 -100 34 -30 62 -40 77 -28 19 16 59
8 63 -12 5 -25 -53 -51 -96 -44 -59 9 -112 74 -112 137 0 25 11 43 49 80 54
55 83 61 125 28z m234 11 l62 0 0 -31 c0 -31 -1 -32 -40 -26 l-40 5 0 -99 c0
-90 -2 -99 -19 -99 -20 0 -31 49 -31 146 l0 54 -35 0 c-33 0 -35 2 -35 31 0
31 1 31 38 25 20 -3 65 -6 100 -6z m183 0 c12 0 12 -247 0 -254 -5 -4 -16 -3
-25 0 -14 5 -16 27 -16 136 0 115 2 129 16 124 9 -3 20 -6 25 -6z m477 -8 c10
-10 38 -46 62 -81 41 -59 45 -62 51 -40 4 13 7 50 8 82 1 50 4 58 19 55 15 -3
17 -18 20 -127 4 -171 -8 -178 -98 -56 -30 41 -57 75 -60 75 -3 0 -3 -32 -2
-71 4 -73 -5 -93 -35 -82 -10 4 -13 35 -13 134 0 108 2 129 15 129 8 0 23 -8
33 -18z m561 -59 c26 -71 41 -98 41 -73 0 7 9 44 20 81 16 54 25 69 40 69 10
0 21 -4 24 -8 5 -8 -35 -148 -64 -229 -22 -60 -52 -36 -85 65 -9 28 -18 52
-20 52 -2 0 -9 -25 -15 -55 -13 -63 -42 -106 -60 -89 -11 11 -70 171 -84 227
-6 25 -4 27 23 27 27 0 30 -4 46 -65 10 -36 21 -65 26 -65 4 0 20 32 35 70 15
39 32 69 37 67 5 -1 22 -35 36 -74z m633 40 c16 -14 19 -26 14 -60 -4 -30 -1
-44 10 -54 23 -19 14 -69 -18 -92 -20 -15 -43 -20 -97 -21 l-71 -1 0 131 0
130 71 -7 c46 -5 78 -14 91 -26z m398 -65 c26 -57 51 -118 55 -136 7 -32 6
-33 -21 -30 -21 2 -30 10 -34 28 -5 23 -11 25 -63 28 -53 3 -57 1 -63 -22 -6
-24 -39 -42 -49 -25 -5 7 62 193 87 242 19 37 39 17 88 -85z m221 92 c35 0 53
-6 72 -24 69 -64 30 -146 -70 -146 -35 0 -35 0 -31 -40 3 -38 2 -40 -24 -40
-26 0 -28 3 -28 38 0 22 -3 81 -7 132 l-6 93 24 -6 c13 -4 45 -7 70 -7z m349
-19 c19 -14 26 -28 28 -63 4 -57 -19 -79 -88 -86 l-50 -5 0 -38 c0 -35 -3 -39
-25 -39 -23 0 -25 4 -26 48 0 26 -1 84 -2 129 l-2 82 70 -5 c43 -4 80 -13 95
-23z m1615 19 c-7 -11 -79 -50 -92 -50 -7 0 86 58 95 59 2 1 0 -4 -3 -9z
m-3965 -26 c61 -52 74 -104 39 -161 -43 -69 -135 -86 -188 -33 -56 56 -53 132
5 187 46 43 98 45 144 7z m1120 1 c0 -24 -3 -25 -60 -25 -57 0 -60 -1 -60 -24
0 -23 4 -25 53 -28 44 -3 52 -6 52 -23 0 -17 -8 -21 -45 -23 -43 -3 -60 -14
-60 -39 0 -9 20 -13 65 -13 l65 0 0 -29 0 -29 -77 5 c-43 2 -84 6 -90 9 -10 2
-13 36 -13 124 l0 120 85 0 c84 0 85 0 85 -25z m-2781 -109 c14 -17 -12 -26
-76 -26 -36 0 -43 3 -43 20 0 18 7 20 54 20 33 0 58 -5 65 -14z m-1229 -46 c0
-5 -2 -10 -4 -10 -3 0 -8 5 -11 10 -3 6 -1 10 4 10 6 0 11 -4 11 -10z m7867
-203 c3 -69 4 -327 3 -431 0 -27 -2 -47 -5 -45 -2 3 -7 131 -10 284 -4 154 -3
276 2 272 4 -5 9 -41 10 -80z m-2223 18 c-4 -8 -11 -15 -16 -15 -6 0 -5 6 2
15 7 8 14 15 16 15 2 0 1 -7 -2 -15z m2343 -11 c-3 -3 -12 -4 -19 -1 -8 3 -5
6 6 6 11 1 17 -2 13 -5z m-2379 -34 c-7 -11 -19 -22 -27 -25 -12 -5 -12 -3 0
12 13 17 31 32 37 33 1 0 -3 -9 -10 -20z m-7528 -320 c0 -13 -7 -20 -18 -20
-24 0 -32 8 -25 26 8 22 43 17 43 -6z m9787 -207 c-3 -10 -5 -2 -5 17 0 19 2
27 5 18 2 -10 2 -26 0 -35z m-9437 -24 c0 -8 4 -8 13 -1 9 8 12 -13 12 -98 0
-60 -3 -111 -6 -114 -3 -3 -16 2 -27 13 -19 16 -22 29 -22 95 0 46 4 76 10 76
7 0 7 6 0 20 -9 16 -8 20 5 20 8 0 15 -5 15 -11z m2619 -209 c0 -88 -5 -162
-10 -165 -5 -4 -9 54 -9 144 0 135 4 181 16 181 3 0 4 -72 3 -160z m-2973 103
c-11 -11 -17 4 -9 23 7 18 8 18 11 1 2 -10 1 -21 -2 -24z m8384 7 c0 -14 27
-12 33 3 3 6 6 -30 6 -80 1 -56 -3 -93 -9 -93 -5 0 -10 9 -10 20 0 11 -4 20
-10 20 -5 0 -10 -9 -10 -21 0 -15 -5 -19 -15 -15 -12 4 -15 -6 -15 -64 l0 -69
30 6 c24 4 30 2 30 -11 0 -10 6 -24 14 -31 12 -12 15 -12 20 2 4 8 4 31 0 49
-4 22 -2 34 5 34 6 0 11 9 11 20 0 11 -4 20 -10 20 -11 0 -14 177 -4 204 3 9
12 16 20 16 10 0 14 -14 14 -50 l0 -50 59 0 c37 0 63 -5 68 -12 9 -14 12 -98
3 -98 -3 0 -4 -83 -2 -185 2 -136 -1 -184 -9 -183 -6 2 -14 -3 -16 -9 -3 -7 2
-13 11 -13 14 0 16 -15 16 -96 0 -86 -2 -95 -17 -90 -21 6 -51 -9 -40 -21 5
-4 12 -1 17 6 7 12 11 12 24 -2 26 -25 21 -57 -9 -57 -18 0 -25 5 -25 20 0 13
-7 20 -20 20 -13 0 -20 -7 -20 -20 0 -17 -7 -20 -40 -20 -43 0 -45 2 -30 31 8
14 7 19 -1 19 -9 0 -9 3 0 14 8 10 9 16 1 21 -5 3 -10 21 -10 40 0 18 -5 35
-11 37 -7 2 -7 12 2 31 8 17 9 31 3 35 -14 10 -16 40 -5 60 6 9 11 11 11 5 0
-7 8 -13 18 -13 14 1 12 5 -10 25 -21 18 -28 34 -30 62 l-1 38 -7 -45 c-4 -25
-8 -39 -8 -32 -3 20 -32 -11 -33 -35 -1 -17 -2 -17 -6 1 -3 10 -16 30 -30 44
-24 24 -25 29 -21 119 3 52 9 98 15 101 16 11 22 162 6 162 -7 0 -13 9 -13 20
0 11 5 20 10 20 6 0 10 6 10 13 0 26 21 87 30 87 6 0 10 -4 10 -10z m170 -5
c0 -8 -4 -15 -10 -15 -5 0 -10 7 -10 15 0 8 5 15 10 15 6 0 10 -7 10 -15z
m131 -85 c5 0 9 -7 9 -15 0 -8 -5 -15 -11 -15 -8 0 -10 -15 -7 -45 3 -25 2
-45 -3 -45 -5 0 -9 15 -10 33 0 17 -2 41 -4 51 -2 11 -1 33 3 50 6 27 7 28 10
9 2 -13 8 -23 13 -23z m-8314 -72 c-3 -7 -5 -2 -5 12 0 14 2 19 5 13 2 -7 2
-19 0 -25z m9423 -53 c0 -14 -4 -25 -10 -25 -5 0 -10 11 -10 25 0 14 5 25 10
25 6 0 10 -11 10 -25z m-8904 -49 c-8 -14 -8 -20 2 -23 6 -3 12 -11 12 -19 0
-8 -6 -13 -12 -11 -18 3 -17 -62 1 -80 12 -13 12 -16 0 -24 -11 -7 -10 -9 4
-9 17 0 18 -6 11 -67 -4 -38 -7 -78 -7 -90 0 -13 -5 -23 -12 -23 -10 0 -13
-15 -12 -56 2 -30 -1 -57 -4 -60 -14 -8 -15 169 -1 182 15 15 16 31 2 36 -11
3 -21 220 -12 269 4 25 5 26 21 10 13 -12 15 -20 7 -35z m6984 29 c0 -8 -4
-15 -10 -15 -5 0 -10 7 -10 15 0 8 5 15 10 15 6 0 10 -7 10 -15z m377 -27 c-8
-5 -7 -8 4 -8 12 0 15 -13 15 -69 -1 -38 -4 -67 -8 -64 -8 4 -10 -13 -13 -87
-4 -97 -4 -98 -25 -93 -11 3 -17 9 -14 14 3 5 10 6 16 3 7 -5 8 5 3 32 -4 21
-11 41 -16 45 -12 7 -8 60 6 79 6 8 13 33 14 54 1 21 6 47 11 56 6 10 5 21 -1
27 -5 5 -7 18 -3 27 5 14 9 15 15 5 5 -8 3 -17 -4 -21z m866 15 c-7 -2 -19 -2
-25 0 -7 3 -2 5 12 5 14 0 19 -2 13 -5z m677 -23 c0 -11 -4 -20 -10 -20 -5 0
-10 9 -10 20 0 11 5 20 10 20 6 0 10 -9 10 -20z m-1865 -87 c5 -50 8 -356 5
-560 0 -6 -8 -10 -17 -8 -10 1 -13 0 -6 -2 17 -6 25 -35 12 -44 -9 -5 -9 -17
1 -50 8 -24 14 -81 14 -127 1 -72 -2 -86 -18 -98 -17 -12 -18 -14 -3 -14 23 0
22 -20 0 -21 -11 0 -13 -3 -5 -6 22 -9 14 -43 -10 -43 -29 0 -58 -28 -58 -57
0 -16 6 -23 20 -23 13 0 20 -7 20 -20 0 -13 -7 -20 -20 -20 -11 0 -20 -4 -20
-10 0 -5 -9 -10 -20 -10 -14 0 -20 7 -21 23 0 12 -4 156 -8 319 -3 163 -10
300 -14 304 -4 4 -13 2 -19 -4 -9 -9 -9 -12 0 -12 7 0 10 -12 7 -32 -5 -40 -5
-56 -1 -325 2 -116 1 -224 -2 -238 l-5 -27 -88 4 c-48 1 -90 5 -93 8 -3 3 -7
230 -10 503 -4 484 -4 497 15 497 12 0 19 -7 19 -20 0 -17 7 -20 40 -20 33 0
40 3 40 20 0 15 7 20 25 20 14 0 25 6 25 13 0 8 4 7 10 -3 5 -8 10 -81 10
-161 0 -157 7 -220 21 -197 5 7 9 69 10 138 0 69 4 163 7 210 7 80 9 88 42
122 22 23 45 37 61 37 26 1 27 -2 34 -66z m175 -53 c6 0 10 -13 10 -28 0 -15
5 -33 12 -40 9 -9 7 -12 -10 -12 -20 0 -22 -5 -22 -49 0 -76 -10 -111 -31
-111 -16 0 -19 8 -20 58 -1 31 -3 81 -4 110 -2 39 2 55 14 62 10 6 11 10 4 10
-22 0 -15 40 7 40 17 0 20 7 22 43 1 30 3 24 5 -20 2 -35 8 -63 13 -63z m580
80 c0 -22 -4 -40 -10 -40 -5 0 -10 18 -10 40 0 22 5 40 10 40 6 0 10 -18 10
-40z m310 20 c0 -11 -4 -20 -10 -20 -5 0 -11 -10 -11 -22 -1 -18 -3 -17 -8 7
-4 17 -5 36 -3 43 7 20 32 14 32 -8z m50 -15 c0 -8 -4 -15 -10 -15 -5 0 -7 7
-4 15 4 8 8 15 10 15 2 0 4 -7 4 -15z m-8143 -37 c-3 -7 -5 -2 -5 12 0 14 2
19 5 13 2 -7 2 -19 0 -25z m-347 -28 c-20 -13 -40 -13 -40 0 0 6 12 10 28 10
21 0 24 -2 12 -10z m3980 -60 c0 -5 -2 -10 -4 -10 -3 0 -8 5 -11 10 -3 6 -1
10 4 10 6 0 11 -4 11 -10z m3460 -87 c0 -36 -4 -63 -10 -63 -6 0 -10 32 -10
78 0 53 3 72 10 62 5 -8 10 -43 10 -77z m1797 -5 c-2 -13 -4 -5 -4 17 -1 22 1
32 4 23 2 -10 2 -28 0 -40z m-3177 8 c0 -3 -4 -8 -10 -11 -5 -3 -10 -1 -10 4
0 6 5 11 10 11 6 0 10 -2 10 -4z m-5340 -10 c0 -2 -8 -10 -17 -17 -16 -13 -17
-12 -4 4 13 16 21 21 21 13z m137 -2 c-3 -3 -12 -4 -19 -1 -8 3 -5 6 6 6 11 1
17 -2 13 -5z m3648 -24 c3 -5 1 -10 -4 -10 -6 0 -11 5 -11 10 0 6 2 10 4 10 3
0 8 -4 11 -10z m-4497 -14 c-7 -8 -15 -12 -17 -11 -5 6 10 25 20 25 5 0 4 -6
-3 -14z m-28 -46 c-6 -11 -15 -20 -20 -20 -6 0 -10 9 -10 20 0 13 7 20 20 20
18 0 19 -3 10 -20z m820 -5 c0 -14 -4 -25 -10 -25 -5 0 -10 11 -10 25 0 14 5
25 10 25 6 0 10 -11 10 -25z m5410 -15 c0 -41 -19 -57 -21 -17 -1 21 -1 21 -9
-3 -7 -21 -8 -19 -9 18 -1 36 2 42 19 42 17 0 20 -7 20 -40z m1224 24 c3 -9 6
-58 6 -110 0 -69 -3 -94 -12 -94 -10 0 -14 30 -16 110 -3 101 6 136 22 94z
m-6747 -36 c-15 -9 -19 -4 -11 16 5 14 9 15 15 5 5 -8 3 -17 -4 -21z m4017 17
c3 -8 1 -15 -4 -15 -6 0 -10 7 -10 15 0 8 2 15 4 15 2 0 6 -7 10 -15z m2986
-6 c0 -18 -2 -19 -15 -5 -8 8 -15 17 -15 20 0 3 7 6 15 6 9 0 15 -9 15 -21z
m-7130 1 c0 -5 -5 -10 -11 -10 -5 0 -7 5 -4 10 3 6 8 10 11 10 2 0 4 -4 4 -10z
m-503 -32 c-3 -7 -5 -2 -5 12 0 14 2 19 5 13 2 -7 2 -19 0 -25z m9183 -250 c0
-155 -2 -279 -5 -277 -8 9 -9 559 0 559 3 0 5 -127 5 -282z m-8576 230 c-4 -6
-10 -5 -15 3 -14 22 -10 33 6 19 8 -7 12 -17 9 -22z m4603 26 c-3 -3 -12 -4
-19 -1 -8 3 -5 6 6 6 11 1 17 -2 13 -5z m-5221 -51 c-10 -10 -19 5 -10 18 6
11 8 11 12 0 2 -7 1 -15 -2 -18z m674 23 c0 -2 -8 -10 -17 -17 -16 -13 -17
-12 -4 4 13 16 21 21 21 13z m6817 -58 c-3 -7 -5 -2 -5 12 0 14 2 19 5 13 2
-7 2 -19 0 -25z m150 10 c-3 -8 -6 -5 -6 6 -1 11 2 17 5 13 3 -3 4 -12 1 -19z
m9 -46 c-7 -11 -46 -4 -46 8 0 12 33 18 44 9 4 -4 5 -12 2 -17z m162 22 c25
-7 30 -24 7 -24 -9 0 -15 -9 -15 -25 0 -14 -5 -25 -11 -25 -8 0 -10 -12 -6
-33 3 -19 -1 -43 -9 -57 -10 -19 -13 -21 -14 -7 0 9 -4 17 -10 17 -5 0 -10 9
-10 20 0 11 -6 20 -14 20 -15 0 -25 27 -19 48 3 6 12 12 20 12 14 0 14 2 0 18
-10 10 -17 24 -17 30 0 13 59 16 98 6z m-159 -89 c0 -5 -4 -3 -9 5 -5 8 -9 22
-9 30 0 16 17 -16 18 -35z m-6966 10 c-3 -9 -8 -14 -10 -11 -3 3 -2 9 2 15 9
16 15 13 8 -4z m-45 -16 c2 -10 -6 -19 -18 -22 -16 -4 -20 0 -20 20 0 18 5 24
17 21 10 -2 19 -10 21 -19z m6752 -4 c0 -17 -5 -25 -17 -25 -16 0 -16 2 -3 11
11 8 12 12 3 16 -18 7 -16 23 2 23 9 0 15 -9 15 -25z m217 -7 c-3 -7 -5 -2 -5
12 0 14 2 19 5 13 2 -7 2 -19 0 -25z m133 -88 c37 0 46 -9 42 -45 -4 -31 -8
-35 -33 -35 -22 0 -29 5 -29 20 0 11 5 20 10 20 20 0 9 27 -16 39 -23 10 -24
14 -13 28 13 15 14 14 17 -5 2 -14 11 -22 22 -22z m268 28 c12 -15 14 -140 2
-133 -5 3 -11 1 -15 -5 -3 -5 -1 -10 4 -10 6 0 11 -9 11 -20 0 -11 -4 -20 -10
-20 -5 0 -10 -13 -10 -30 0 -16 5 -30 10 -30 6 0 10 -7 10 -15 0 -8 -8 -15
-19 -15 -16 0 -19 11 -25 78 -4 43 -4 86 0 95 6 16 9 44 13 100 1 20 14 22 29
5z m78 -68 c-3 -53 -1 -60 15 -60 11 0 19 -5 19 -11 0 -6 -12 -9 -26 -7 -24 3
-26 7 -30 71 -3 54 -1 67 11 67 12 0 14 -12 11 -60z m-7411 30 c4 -6 -6 -10
-22 -10 -22 0 -25 2 -13 10 19 12 27 12 35 0z m615 -50 c0 -11 -7 -20 -15 -20
-8 0 -15 9 -15 20 0 11 7 20 15 20 8 0 15 -9 15 -20z m6350 0 c0 -11 -6 -20
-14 -20 -8 0 -17 -10 -19 -22 -2 -13 -5 -4 -6 20 -1 36 2 42 19 42 13 0 20 -7
20 -20z m-6190 -61 c0 -5 -4 -9 -10 -9 -5 0 -10 7 -10 16 0 8 5 12 10 9 6 -3
10 -10 10 -16z m6640 -69 c0 -5 -5 -10 -11 -10 -5 0 -7 5 -4 10 3 6 8 10 11
10 2 0 4 -4 4 -10z m-7910 -35 c0 -14 1 -28 3 -32 1 -5 -9 -9 -23 -10 l-25 -2
25 8 c14 5 21 10 15 10 -5 1 -16 5 -24 10 -12 8 -12 11 0 25 20 22 29 20 29
-9z m100 5 c0 -11 -4 -20 -10 -20 -5 0 -10 9 -10 20 0 11 5 20 10 20 6 0 10
-9 10 -20z m908 -29 c11 -12 16 -13 20 -3 2 6 10 12 18 12 17 0 19 -36 2 -44
-7 -4 -2 -4 12 -1 14 2 33 5 43 5 10 0 17 8 17 20 0 12 7 20 16 20 13 0 15 -7
10 -31 -3 -17 -6 -53 -6 -80 0 -42 -3 -49 -20 -49 -13 0 -20 -7 -20 -20 0 -17
-7 -20 -40 -20 -35 0 -40 -3 -40 -24 0 -22 -4 -24 -77 -29 -43 -2 -85 -1 -93
4 -11 6 -6 8 18 9 29 0 32 3 32 30 0 17 4 30 8 30 12 0 32 47 32 75 0 18 5 25
20 25 17 0 20 7 20 39 0 22 -5 41 -12 43 -9 3 -8 9 2 20 14 15 15 15 19 0 2
-8 10 -23 19 -31z m276 19 c4 -23 11 -30 30 -30 16 0 26 -7 29 -22 7 -25 0
-38 -11 -21 -4 6 -19 14 -34 18 -15 4 -28 16 -32 28 -3 12 -8 18 -11 15 -10
-10 14 -48 31 -48 8 0 17 -7 20 -15 4 -8 12 -15 20 -15 15 0 15 0 19 -103 l3
-67 -54 0 -54 0 -1 48 c-5 155 4 242 26 242 7 0 15 -13 19 -30z m7319 1 c3
-12 -1 -22 -9 -25 -10 -4 -14 2 -14 19 0 30 16 33 23 6z m-1013 -31 c0 -11 -7
-20 -15 -20 -8 0 -15 9 -15 20 0 11 7 20 15 20 8 0 15 -9 15 -20z m-7610 -40
c0 -11 5 -20 10 -20 6 0 10 -27 10 -60 0 -33 -4 -60 -10 -60 -5 0 -11 -10 -11
-22 -1 -14 -6 -5 -12 20 -5 23 -14 42 -18 42 -5 0 -9 27 -9 60 0 53 2 60 20
60 13 0 20 -7 20 -20z m8760 0 c0 -13 -7 -20 -19 -20 -12 0 -21 -8 -24 -22 -2
-13 -5 -4 -6 20 -1 39 1 42 24 42 18 0 25 -5 25 -20z m-96 -16 c10 -25 7 -74
-4 -74 -5 0 -10 15 -10 33 0 27 -5 35 -27 44 l-28 11 31 1 c21 1 34 -5 38 -15z
m-8448 -38 c8 -8 14 -21 14 -29 0 -20 -27 -29 -34 -11 -3 8 0 14 7 15 9 0 9 2
0 6 -13 5 -19 33 -7 33 3 0 12 -6 20 -14z m7828 -18 c-4 -6 -10 -5 -15 3 -14
22 -10 33 6 19 8 -7 12 -17 9 -22z m-6847 -20 c-3 -7 -5 -2 -5 12 0 14 2 19 5
13 2 -7 2 -19 0 -25z m6523 14 c0 -11 -9 -27 -20 -37 -20 -18 -20 -17 -20 18
0 30 4 37 20 37 13 0 20 -7 20 -18z m-7480 -82 c0 -15 -7 -20 -25 -20 -27 0
-28 1 -19 24 9 24 44 20 44 -4z m7598 -27 c-10 -2 -28 -2 -40 0 -13 2 -5 4 17
4 22 1 32 -1 23 -4z"/>
<path d="M7056 7676 c10 -8 21 -12 24 -10 5 6 -21 24 -34 24 -6 0 -1 -6 10
-14z"/>
<path d="M7086 7607 c3 -10 9 -15 12 -12 3 3 0 11 -7 18 -10 9 -11 8 -5 -6z"/>
<path d="M6862 7540 c0 -14 2 -19 5 -12 2 6 2 18 0 25 -3 6 -5 1 -5 -13z"/>
<path d="M7000 7550 c0 -5 6 -10 14 -10 8 0 18 5 21 10 3 6 -3 10 -14 10 -12
0 -21 -4 -21 -10z"/>
<path d="M7080 7455 c0 -8 9 -15 20 -15 13 0 18 5 14 15 -4 8 -12 15 -20 15
-8 0 -14 -7 -14 -15z"/>
<path d="M3532 6020 c0 -14 2 -19 5 -12 2 6 2 18 0 25 -3 6 -5 1 -5 -13z"/>
<path d="M5590 7620 c57 -20 125 -26 116 -11 -3 4 -25 11 -48 14 -24 3 -61 8
-83 11 -37 5 -36 4 15 -14z"/>
<path d="M5591 7144 c0 -11 3 -14 6 -6 3 7 2 16 -1 19 -3 4 -6 -2 -5 -13z"/>
<path d="M5085 6866 c17 -8 32 -12 34 -10 7 7 -3 12 -34 18 l-30 6 30 -14z"/>
<path d="M6100 6815 c0 -3 6 -13 14 -21 8 -7 16 -19 18 -25 2 -6 11 -10 19 -8
11 3 6 12 -18 32 -18 16 -33 26 -33 22z"/>
<path d="M4420 6340 c0 -5 12 -12 28 -16 15 -3 42 -10 61 -15 55 -14 47 -3
-14 20 -63 24 -75 25 -75 11z"/>
<path d="M4640 6267 c0 -7 111 -42 123 -39 5 1 31 -4 59 -13 90 -26 77 -15
-17 16 -94 30 -165 46 -165 36z"/>
<path d="M4900 6196 c0 -4 102 -41 140 -51 46 -11 -2 12 -69 34 -69 22 -71 23
-71 17z"/>
<path d="M5220 6060 c0 -5 8 -10 18 -10 10 0 22 -3 25 -7 4 -3 19 -7 34 -9 24
-2 23 0 -12 16 -46 21 -65 24 -65 10z"/>
<path d="M5320 6060 c0 -6 7 -10 15 -10 8 0 15 2 15 4 0 2 -7 6 -15 10 -8 3
-15 1 -15 -4z"/>
<path d="M5383 6043 c9 -2 23 -2 30 0 6 3 -1 5 -18 5 -16 0 -22 -2 -12 -5z"/>
<path d="M5711 6253 c0 -25 1 -26 9 -8 12 27 12 35 0 35 -5 0 -10 -12 -9 -27z"/>
<path d="M7300 6295 c-26 -13 -65 -42 -87 -65 -112 -111 -110 -249 4 -349 103
-91 229 -90 341 4 71 59 102 184 66 261 -34 70 -180 174 -244 173 -19 0 -55
-11 -80 -24z m115 -169 c41 -18 69 -57 60 -86 -18 -57 -123 -67 -173 -16 l-27
26 19 34 c28 53 64 65 121 42z"/>
<path d="M7355 5671 c-15 -6 -21 -20 -25 -56 l-5 -47 -63 -20 c-192 -58 -231
-272 -71 -387 22 -17 88 -46 147 -65 129 -43 169 -67 178 -102 14 -56 -42 -99
-129 -99 -54 0 -74 6 -154 47 l-92 47 -41 -47 c-22 -26 -40 -52 -40 -57 0 -16
70 -80 110 -101 19 -10 60 -23 90 -29 l55 -11 3 -50 c4 -61 24 -84 72 -84 50
0 70 24 70 86 l0 49 58 17 c110 32 192 126 192 220 0 54 -11 89 -46 140 -37
53 -85 82 -204 124 -127 44 -156 58 -170 84 -15 28 -5 52 29 73 48 28 149 18
253 -26 l37 -15 40 53 c23 30 41 58 41 63 0 15 -140 80 -187 88 l-43 7 0 44
c0 38 -3 45 -26 53 -29 12 -51 12 -79 1z"/>
<path d="M6855 3713 c-10 -37 -42 -140 -71 -228 -30 -87 -54 -166 -54 -175 0
-13 24 -15 156 -18 l156 -3 -7 23 c-4 13 -22 70 -41 128 -18 58 -48 156 -66
219 -18 63 -38 116 -44 118 -6 2 -19 -26 -29 -64z"/>
<path d="M3262 4183 c-22 -21 -44 -51 -47 -66 -17 -64 66 -167 133 -167 52 0
112 63 112 117 0 66 -59 136 -126 149 -27 5 -37 0 -72 -33z"/>
<path d="M4014 3890 c3 -19 6 -219 6 -443 l0 -409 88 7 c229 17 359 89 432
238 53 109 66 191 45 289 -50 239 -190 338 -498 350 l-79 3 6 -35z"/>
<path d="M2264 3891 c3 -24 6 -93 6 -153 l0 -110 148 4 c170 4 205 15 240 77
37 65 23 133 -37 184 -39 32 -61 36 -230 39 l-133 3 6 -44z"/>
<path d="M2270 3191 l0 -151 143 0 c166 0 216 12 267 65 63 65 48 169 -32 212
-27 15 -63 19 -205 21 l-173 4 0 -151z"/>
<path d="M7924 3747 l1 -189 145 4 c126 3 150 6 186 25 84 45 113 149 66 239
-39 77 -108 102 -288 106 l-110 3 0 -188z"/>
<path d="M3520 2446 c-6 -16 -13 -32 -15 -36 -3 -4 11 -10 30 -12 41 -5 46 12
15 52 l-19 25 -11 -29z"/>
<path d="M6160 2475 c0 -27 25 -34 60 -15 29 16 13 40 -26 40 -30 0 -34 -3
-34 -25z"/>
<path d="M6160 2381 c0 -32 16 -43 52 -34 26 7 38 20 38 46 0 14 -9 17 -45 17
-43 0 -45 -1 -45 -29z"/>
<path d="M6596 2456 c-3 -13 -9 -31 -12 -40 -5 -13 1 -16 25 -16 36 0 35 -3
16 44 -18 43 -21 44 -29 12z"/>
<path d="M6867 2503 c-4 -3 -7 -21 -7 -40 0 -39 19 -51 56 -35 34 16 33 59 -2
72 -30 12 -38 12 -47 3z"/>
<path d="M7122 2473 c3 -34 6 -38 34 -41 55 -5 73 58 21 72 -50 13 -58 8 -55
-31z"/>
<path d="M4771 2474 c-41 -52 -12 -124 48 -124 34 0 71 37 71 72 0 38 -36 78
-70 78 -19 0 -36 -9 -49 -26z"/>
<path d="M8482 1420 c0 -14 2 -19 5 -12 2 6 2 18 0 25 -3 6 -5 1 -5 -13z"/>
<path d="M8640 879 c0 -5 5 -7 10 -4 6 3 10 8 10 11 0 2 -4 4 -10 4 -5 0 -10
-5 -10 -11z"/>
<path d="M8568 763 c6 -2 18 -2 25 0 6 3 1 5 -13 5 -14 0 -19 -2 -12 -5z"/>
<path d="M8650 680 c0 -5 5 -10 10 -10 6 0 10 5 10 10 0 6 -4 10 -10 10 -5 0
-10 -4 -10 -10z"/>
<path d="M7943 553 c-18 -7 -16 -33 2 -33 8 0 15 9 15 20 0 11 -1 20 -2 19 -2
0 -9 -3 -15 -6z"/>
<path d="M7993 340 c0 -36 2 -50 4 -32 2 17 2 47 0 65 -2 17 -4 3 -4 -33z"/>
<path d="M1950 220 c0 -5 7 -10 15 -10 8 0 15 5 15 10 0 6 -7 10 -15 10 -8 0
-15 -4 -15 -10z"/>
<path d="M1900 206 c0 -2 7 -6 15 -10 8 -3 15 -1 15 4 0 6 -7 10 -15 10 -8 0
-15 -2 -15 -4z"/>
<path d="M1795 100 c3 -6 2 -10 -4 -10 -6 0 -8 -7 -5 -15 5 -12 8 -12 20 0 18
17 18 21 -2 29 -8 3 -12 2 -9 -4z"/>
<path d="M3028 9728 c2 -277 5 -505 8 -507 16 -16 19 66 19 507 0 434 -2 497
-15 500 -13 2 -15 -58 -12 -500z"/>
<path d="M4450 10228 c-1 -12 -2 -600 -1 -732 2 -291 10 -176 15 205 2 200 5
369 6 374 7 32 -2 155 -10 155 -5 0 -10 -1 -10 -2z"/>
<path d="M5230 10223 c-5 -78 3 -350 10 -357 7 -7 10 58 10 177 0 118 -4 187
-10 187 -5 0 -10 -3 -10 -7z"/>
<path d="M8750 10220 c0 -5 5 -10 10 -10 6 0 10 5 10 10 0 6 -4 10 -10 10 -5
0 -10 -4 -10 -10z"/>
<path d="M9447 10211 c4 -16 8 -17 18 -8 9 9 10 14 1 19 -19 13 -24 9 -19 -11z"/>
<path d="M9573 10224 c-9 -4 -9 -13 -2 -30 5 -14 9 -46 10 -72 1 -43 1 -45 9
-17 5 17 11 51 13 78 4 46 -1 52 -30 41z"/>
<path d="M10044 10213 c2 -10 7 -34 12 -53 l8 -35 11 45 c14 52 11 60 -16 60
-13 0 -18 -6 -15 -17z"/>
<path d="M8217 10213 c-11 -10 -8 -43 3 -43 6 0 10 11 10 25 0 26 -2 29 -13
18z"/>
<path d="M5236 9743 c-4 -9 -2 -21 4 -27 7 -7 10 -2 10 17 0 31 -5 34 -14 10z"/>
<path d="M9580 9545 c-4 -50 2 -177 10 -225 6 -35 8 -22 8 60 1 105 -13 229
-18 165z"/>
<path d="M5243 9510 c0 -25 2 -35 4 -22 2 12 2 32 0 45 -2 12 -4 2 -4 -23z"/>
<path d="M901 9474 c0 -11 3 -14 6 -6 3 7 2 16 -1 19 -3 4 -6 -2 -5 -13z"/>
<path d="M897 9443 c-10 -10 -8 -56 3 -73 7 -11 10 -2 10 33 0 48 -1 52 -13
40z"/>
<path d="M903 9315 c0 -22 2 -30 4 -17 2 12 2 30 0 40 -3 9 -5 -1 -4 -23z"/>
<path d="M4453 9275 c0 -27 2 -38 4 -22 2 15 2 37 0 50 -2 12 -4 0 -4 -28z"/>
<path d="M9593 9195 c0 -33 2 -45 4 -27 2 18 2 45 0 60 -2 15 -4 0 -4 -33z"/>
<path d="M902 9165 c-14 -427 -14 -450 -3 -439 8 7 11 86 8 265 -1 140 -4 218
-5 174z"/>
<path d="M9593 9085 c0 -22 2 -30 4 -17 2 12 2 30 0 40 -3 9 -5 -1 -4 -23z"/>
<path d="M9590 8984 c0 -8 5 -12 10 -9 6 3 10 10 10 16 0 5 -4 9 -10 9 -5 0
-10 -7 -10 -16z"/>
<path d="M4451 8964 c0 -11 3 -14 6 -6 3 7 2 16 -1 19 -3 4 -6 -2 -5 -13z"/>
<path d="M3051 8573 c-5 -44 -5 -46 -15 -62 -5 -8 -4 -16 2 -20 5 -3 8 -26 7
-50 -2 -31 0 -39 7 -28 5 9 7 56 5 104 -1 49 -4 73 -6 56z"/>
<path d="M9612 8540 c0 -14 2 -19 5 -12 2 6 2 18 0 25 -3 6 -5 1 -5 -13z"/>
<path d="M9618 8225 c2 -154 6 -282 8 -284 6 -7 2 344 -6 459 -3 59 -5 -18 -2
-175z"/>
<path d="M3053 8390 c-7 -11 -13 -49 -13 -84 0 -36 -5 -110 -11 -165 -10 -97
-9 -163 3 -131 11 28 40 315 36 358 -3 39 -4 41 -15 22z"/>
<path d="M3020 7960 c0 -8 5 -22 10 -30 9 -13 10 -13 10 0 0 8 -5 22 -10 30
-9 13 -10 13 -10 0z"/>
<path d="M9623 7895 c0 -22 2 -30 4 -17 2 12 2 30 0 40 -3 9 -5 -1 -4 -23z"/>
<path d="M9620 7166 c0 -30 5 -58 10 -61 6 -4 10 15 10 49 0 30 -4 58 -10 61
-6 4 -10 -15 -10 -49z"/>
<path d="M2030 4521 c0 -12 5 -21 10 -21 6 0 10 6 10 14 0 8 -4 18 -10 21 -5
3 -10 -3 -10 -14z"/>
<path d="M2458 4493 c7 -3 16 -2 19 1 4 3 -2 6 -13 5 -11 0 -14 -3 -6 -6z"/>
<path d="M2858 4493 c7 -3 16 -2 19 1 4 3 -2 6 -13 5 -11 0 -14 -3 -6 -6z"/>
<path d="M1671 4174 c0 -11 3 -14 6 -6 3 7 2 16 -1 19 -3 4 -6 -2 -5 -13z"/>
<path d="M483 3795 c0 -8 4 -12 9 -9 4 3 8 9 8 15 0 5 -4 9 -8 9 -5 0 -9 -7
-9 -15z"/>
<path d="M483 3755 c0 -8 4 -15 9 -15 4 0 8 7 8 15 0 8 -4 15 -8 15 -5 0 -9
-7 -9 -15z"/>
<path d="M480 3700 c0 -5 5 -10 10 -10 6 0 10 5 10 10 0 6 -4 10 -10 10 -5 0
-10 -4 -10 -10z"/>
<path d="M481 3614 c0 -11 3 -14 6 -6 3 7 2 16 -1 19 -3 4 -6 -2 -5 -13z"/>
<path d="M9970 3160 c0 -5 5 -10 10 -10 6 0 10 5 10 10 0 6 -4 10 -10 10 -5 0
-10 -4 -10 -10z"/>
<path d="M9930 3135 c0 -8 5 -15 10 -15 6 0 10 7 10 15 0 8 -4 15 -10 15 -5 0
-10 -7 -10 -15z"/>
<path d="M483 3075 c0 -22 2 -30 4 -17 2 12 2 30 0 40 -3 9 -5 -1 -4 -23z"/>
<path d="M12 3050 c0 -19 2 -27 5 -17 2 9 2 25 0 35 -3 9 -5 1 -5 -18z"/>
<path d="M690 3010 c0 -5 5 -10 10 -10 6 0 10 5 10 10 0 6 -4 10 -10 10 -5 0
-10 -4 -10 -10z"/>
<path d="M9880 2930 c0 -19 4 -28 13 -25 17 7 18 55 1 55 -9 0 -14 -11 -14
-30z"/>
<path d="M17 2775 c1 -99 3 -202 4 -230 0 -27 3 -44 6 -37 2 6 16 12 29 12 21
0 24 4 24 39 0 33 -4 40 -22 43 -22 3 -23 7 -26 128 -2 69 -7 148 -11 175 -5
30 -6 -21 -4 -130z"/>
<path d="M9880 2874 c0 -8 5 -12 10 -9 6 3 10 10 10 16 0 5 -4 9 -10 9 -5 0
-10 -7 -10 -16z"/>
<path d="M693 2840 c0 -25 2 -35 4 -22 2 12 2 32 0 45 -2 12 -4 2 -4 -23z"/>
<path d="M9885 2840 c-3 -5 -1 -10 4 -10 6 0 11 5 11 10 0 6 -2 10 -4 10 -3 0
-8 -4 -11 -10z"/>
<path d="M9880 2681 c0 -35 3 -39 31 -45 42 -8 49 -8 49 4 0 6 -13 10 -30 10
-30 0 -41 14 -17 23 10 4 10 6 0 6 -7 1 -13 10 -13 21 0 11 -4 20 -10 20 -5 0
-10 -17 -10 -39z"/>
<path d="M10025 2700 c-3 -6 1 -7 9 -4 18 7 21 14 7 14 -6 0 -13 -4 -16 -10z"/>
<path d="M10010 2630 c0 -5 5 -10 11 -10 5 0 7 5 4 10 -3 6 -8 10 -11 10 -2 0
-4 -4 -4 -10z"/>
<path d="M251 2254 c0 -11 3 -14 6 -6 3 7 2 16 -1 19 -3 4 -6 -2 -5 -13z"/>
<path d="M1011 2023 c-1 -63 3 -103 9 -103 12 0 12 108 1 165 -7 32 -9 19 -10
-62z"/>
<path d="M1232 1940 c0 -14 2 -19 5 -12 2 6 2 18 0 25 -3 6 -5 1 -5 -13z"/>
<path d="M830 1761 c0 -47 4 -81 10 -81 6 0 10 31 10 74 0 41 -4 78 -10 81 -6
4 -10 -23 -10 -74z"/>
<path d="M2480 1635 c0 -8 2 -15 4 -15 2 0 6 7 10 15 3 8 1 15 -4 15 -6 0 -10
-7 -10 -15z"/>
<path d="M2482 1570 c0 -19 2 -27 5 -17 2 9 2 25 0 35 -3 9 -5 1 -5 -18z"/>
<path d="M952 1550 c0 -19 2 -27 5 -17 2 9 2 25 0 35 -3 9 -5 1 -5 -18z"/>
<path d="M830 1461 c0 -17 5 -33 10 -36 6 -4 10 8 10 29 0 20 -4 36 -10 36 -5
0 -10 -13 -10 -29z"/>
<path d="M2482 1460 c0 -14 2 -19 5 -12 2 6 2 18 0 25 -3 6 -5 1 -5 -13z"/>
<path d="M2480 1374 c0 -8 5 -12 10 -9 6 3 10 10 10 16 0 5 -4 9 -10 9 -5 0
-10 -7 -10 -16z"/>
<path d="M3350 1350 c0 -5 5 -10 10 -10 6 0 10 5 10 10 0 6 -4 10 -10 10 -5 0
-10 -4 -10 -10z"/>
<path d="M2481 1273 c0 -50 3 -83 9 -83 12 0 12 56 1 120 -8 40 -9 37 -10 -37z"/>
<path d="M632 1220 c0 -14 2 -19 5 -12 2 6 2 18 0 25 -3 6 -5 1 -5 -13z"/>
<path d="M1550 1100 c0 -5 7 -10 15 -10 8 0 15 5 15 10 0 6 -7 10 -15 10 -8 0
-15 -4 -15 -10z"/>
<path d="M2170 981 c0 -61 4 -101 10 -101 6 0 10 38 10 94 0 53 -4 98 -10 101
-6 4 -10 -30 -10 -94z"/>
<path d="M1081 954 c-18 -21 -6 -30 14 -11 8 9 15 18 15 21 0 11 -15 5 -29
-10z"/>
<path d="M3355 935 c0 -14 3 -25 8 -25 4 0 7 11 7 25 0 14 -3 25 -7 25 -5 0
-8 -11 -8 -25z"/>
<path d="M6440 950 c0 -5 9 -10 20 -10 11 0 20 5 20 10 0 6 -9 10 -20 10 -11
0 -20 -4 -20 -10z"/>
<path d="M6630 920 c0 -5 5 -10 10 -10 6 0 10 5 10 10 0 6 -4 10 -10 10 -5 0
-10 -4 -10 -10z"/>
<path d="M3352 757 c-4 -215 -6 -498 -3 -557 1 -30 -2 -83 -7 -117 l-8 -63 26
0 26 0 -9 77 c-4 43 -9 99 -10 125 -1 26 -5 50 -9 54 -4 4 -1 12 7 18 14 10
15 49 9 304 -4 160 -10 292 -13 292 -3 0 -7 -60 -9 -133z"/>
<path d="M4781 864 c0 -11 3 -14 6 -6 3 7 2 16 -1 19 -3 4 -6 -2 -5 -13z"/>
<path d="M3196 724 c-8 -31 -6 -400 3 -519 5 -59 8 -73 14 -53 7 26 1 588 -7
595 -2 2 -7 -8 -10 -23z"/>
<path d="M7115 730 c-3 -5 -1 -10 4 -10 6 0 11 5 11 10 0 6 -2 10 -4 10 -3 0
-8 -4 -11 -10z"/>
<path d="M4783 670 c0 -30 2 -43 4 -27 2 15 2 39 0 55 -2 15 -4 2 -4 -28z"/>
<path d="M2007 653 c-4 -3 -7 -11 -7 -17 0 -6 5 -5 12 2 6 6 9 14 7 17 -3 3
-9 2 -12 -2z"/>
<path d="M2800 619 c0 -8 7 -24 15 -35 18 -24 19 -7 0 26 -9 16 -14 19 -15 9z"/>
<path d="M7122 600 c0 -14 2 -19 5 -12 2 6 2 18 0 25 -3 6 -5 1 -5 -13z"/>
<path d="M4777 528 c-2 -13 -3 -61 -2 -108 4 -110 4 -107 14 -91 8 12 4 210
-4 219 -1 2 -5 -7 -8 -20z"/>
<path d="M2780 450 c0 -5 5 -10 10 -10 6 0 10 5 10 10 0 6 -4 10 -10 10 -5 0
-10 -4 -10 -10z"/>
<path d="M6932 405 c0 -16 2 -22 5 -12 2 9 2 23 0 30 -3 6 -5 -1 -5 -18z"/>
<path d="M2780 380 c0 -11 5 -20 10 -20 6 0 10 9 10 20 0 11 -4 20 -10 20 -5
0 -10 -9 -10 -20z"/>
<path d="M6836 304 c-9 -22 -8 -24 9 -24 8 0 15 9 15 20 0 24 -15 27 -24 4z"/>
<path d="M6928 275 c-3 -27 -3 -56 2 -64 13 -23 19 17 11 69 l-7 45 -6 -50z"/>
<path d="M2431 254 c0 -11 3 -14 6 -6 3 7 2 16 -1 19 -3 4 -6 -2 -5 -13z"/>
<path d="M6844 179 c3 -34 6 -78 6 -97 0 -23 3 -33 10 -26 12 12 0 184 -13
184 -6 0 -7 -23 -3 -61z"/>
<path d="M7301 214 c0 -11 3 -14 6 -6 3 7 2 16 -1 19 -3 4 -6 -2 -5 -13z"/>
<path d="M7408 183 c6 -2 18 -2 25 0 6 3 1 5 -13 5 -14 0 -19 -2 -12 -5z"/>
<path d="M2680 100 c0 -13 7 -20 20 -20 13 0 20 7 20 20 0 13 -7 20 -20 20
-13 0 -20 -7 -20 -20z"/>
<path d="M3200 70 c0 -27 5 -50 10 -50 6 0 10 23 10 50 0 28 -4 50 -10 50 -5
0 -10 -22 -10 -50z"/>
<path d="M6241 83 c-1 -23 -4 -48 -7 -57 -4 -11 -1 -16 10 -16 12 0 16 9 15
38 0 20 -4 46 -9 57 -7 16 -9 11 -9 -22z"/>
<path d="M6931 73 c-1 -29 4 -53 9 -53 12 0 12 57 0 85 -6 15 -9 6 -9 -32z"/>
<path d="M7440 101 c0 -6 7 -11 15 -11 18 0 20 -17 4 -22 -17 -6 -1 -48 17
-48 12 0 15 10 12 43 -3 34 -8 43 -26 45 -12 2 -22 -1 -22 -7z"/>
<path d="M2560 61 l0 -41 137 0 c120 0 135 2 117 14 -10 8 -21 11 -24 6 -6 -9
-138 -5 -169 5 -30 9 -26 23 12 34 22 6 26 9 11 10 -12 1 -36 4 -53 7 -31 6
-31 6 -31 -35z"/>
<path d="M3868 93 c7 -3 16 -2 19 1 4 3 -2 6 -13 5 -11 0 -14 -3 -6 -6z"/>
<path d="M3902 65 c0 -16 2 -22 5 -12 2 9 2 23 0 30 -3 6 -5 -1 -5 -18z"/>
<path d="M3920 60 c0 -13 7 -20 20 -20 13 0 20 7 20 20 0 13 -7 20 -20 20 -13
0 -20 -7 -20 -20z"/>
<path d="M5770 60 c0 -11 5 -20 10 -20 6 0 10 9 10 20 0 11 -4 20 -10 20 -5 0
-10 -9 -10 -20z"/>
<path d="M5893 55 c0 -8 4 -12 9 -9 5 3 6 10 3 15 -9 13 -12 11 -12 -6z"/>
<path d="M0 51 c0 -5 7 -11 15 -15 8 -3 15 -10 15 -16 0 -6 -4 -9 -9 -5 -5 3
-12 1 -15 -4 -4 -5 7 -9 24 -9 l31 1 -27 29 c-30 30 -34 33 -34 19z"/>
<path d="M5500 40 c0 -5 5 -10 11 -10 5 0 7 5 4 10 -3 6 -8 10 -11 10 -2 0 -4
-4 -4 -10z"/>
<path d="M3820 30 c0 -5 5 -10 11 -10 5 0 7 5 4 10 -3 6 -8 10 -11 10 -2 0 -4
-4 -4 -10z"/>
<path d="M4790 30 c0 -5 5 -10 10 -10 6 0 10 5 10 10 0 6 -4 10 -10 10 -5 0
-10 -4 -10 -10z"/>
<path d="M5911 24 c0 -11 3 -14 6 -6 3 7 2 16 -1 19 -3 4 -6 -2 -5 -13z"/>
<path d="M3915 20 c-4 -6 5 -10 19 -10 14 0 26 5 26 10 0 6 -9 10 -19 10 -11
0 -23 -4 -26 -10z"/>
<path d="M4048 13 c6 -2 18 -2 25 0 6 3 1 5 -13 5 -14 0 -19 -2 -12 -5z"/>
</g>
</svg>
